<?xml version="1.0" encoding="UTF-8" standalone="no"?>
<!DOCTYPE svg PUBLIC "-//W3C//DTD SVG 1.1//EN" "http://www.w3.org/Graphics/SVG/1.1/DTD/svg11.dtd">
<svg width="100%" height="100%" viewBox="0 0 568 68" version="1.1" xmlns="http://www.w3.org/2000/svg" xmlns:xlink="http://www.w3.org/1999/xlink" xml:space="preserve" xmlns:serif="http://www.serif.com/" style="fill-rule:evenodd;clip-rule:evenodd;stroke-linejoin:round;stroke-miterlimit:2;">
    <g transform="matrix(1,0,0,1,-2734.19,-4136.13)">
        <g id="quitB" transform="matrix(1,0,0,1,1801.74,1840.53)">
            <rect x="932.458" y="2295.6" width="567.797" height="67.797" style="fill:none;"/>
            <clipPath id="_clip1">
                <rect x="932.458" y="2295.6" width="567.797" height="67.797"/>
            </clipPath>
            <g clip-path="url(#_clip1)">
                <g transform="matrix(1,0,0,1,-3683.64,1556.04)">
                    <g transform="matrix(1,0,0,1,-9850,-79.2501)">
                        <g transform="matrix(1,0,0,1,12402.9,725.593)">
                            <g>
                                <path d="M2097.12,93.22L2063.22,127.119L2097.12,161.017L2131.02,127.119L2097.12,93.22Z" style="fill:rgb(255,64,97);"/>
                            </g>
                        </g>
                        <g transform="matrix(4.88039,0,0,1,-56265.7,625.424)">
                            <rect x="14500" y="225.788" width="33.898" height="3" style="fill:rgb(255,64,97);"/>
                        </g>
                    </g>
                    <g transform="matrix(1,0,0,1,-9850,-79.2501)">
                        <g transform="matrix(1,0,0,1,12902.9,725.593)">
                            <g>
                                <path d="M2097.12,93.22L2063.22,127.119L2097.12,161.017L2131.02,127.119L2097.12,93.22Z" style="fill:rgb(255,64,97);"/>
                            </g>
                        </g>
                        <g transform="matrix(4.88039,0,0,1,-55931.1,625.424)">
                            <rect x="14500" y="225.788" width="33.898" height="3" style="fill:rgb(255,64,97);"/>
                        </g>
                    </g>
                    <g transform="matrix(1,0,0,1,-9860.07,609.136)">
                        <g>
                            <path d="M14724,178.156C14721.3,179.068 14718.4,179.523 14715.4,179.523C14709.6,179.523 14704.9,177.985 14701.3,174.909C14699.3,173.184 14697.8,171.092 14696.8,168.635C14695.9,166.6 14695.5,164.476 14695.5,162.263C14695.5,158.942 14696.4,155.907 14698.2,153.156C14700.2,150.096 14703,147.891 14706.5,146.54C14709.1,145.531 14712.1,145.026 14715.5,145.026C14721.3,145.026 14726,146.564 14729.6,149.641C14731.6,151.366 14733.1,153.457 14734.1,155.915C14735,157.933 14735.4,160.057 14735.4,162.287C14735.4,165.217 14734.7,167.931 14733.3,170.429C14731.9,172.927 14729.9,174.958 14727.4,176.52L14730.9,179.121C14731.2,179.349 14731.4,179.462 14731.7,179.462C14731.9,179.462 14732.3,179.203 14732.8,178.683L14733.5,179.169L14729.1,184.601L14728.5,183.942C14728.9,183.324 14729.1,182.901 14729.1,182.673C14729.1,182.347 14728.9,182.071 14728.6,181.843L14724,178.156ZM14720.7,175.593L14719.4,174.616C14718.8,174.144 14718.1,173.749 14717.4,173.432C14716.6,173.115 14716,172.956 14715.5,172.956C14714.8,172.956 14714,173.2 14713.3,173.688L14712.9,173.029C14714.4,172.02 14716,171.516 14717.6,171.516C14719.7,171.516 14722,172.419 14724.3,174.225C14729,171.507 14731.4,167.528 14731.4,162.287C14731.4,158.381 14730,155.142 14727.4,152.57C14724.5,149.771 14720.5,148.371 14715.5,148.371C14710.4,148.371 14706.4,149.771 14703.5,152.57C14700.8,155.142 14699.5,158.373 14699.5,162.263C14699.5,166.169 14700.8,169.408 14703.5,171.979C14706.4,174.779 14710.3,176.179 14715.3,176.179C14717.1,176.179 14718.9,175.983 14720.7,175.593Z" style="fill:rgb(255,64,97);fill-rule:nonzero;"/>
                            <path d="M14746.6,148.493L14746.6,166.926C14746.6,169.107 14746.7,170.641 14747,171.528C14747.2,172.415 14747.7,173.184 14748.4,173.835C14750.1,175.397 14753.4,176.179 14758.1,176.179C14763.3,176.179 14766.7,175.259 14768.3,173.42C14768.8,172.801 14769.2,172.065 14769.4,171.21C14769.5,170.356 14769.6,168.928 14769.6,166.926L14769.6,148.493C14769.6,147.826 14769.5,147.35 14769.3,147.065C14769.1,146.78 14768.7,146.556 14768.1,146.393L14768.1,145.612L14774.7,145.612L14774.7,146.393C14774.1,146.54 14773.7,146.756 14773.4,147.04C14773.2,147.325 14773.1,147.809 14773.1,148.493L14773.1,167.683C14773.1,170.043 14772.9,171.841 14772.4,173.078C14771.6,175.292 14770,176.919 14767.7,177.961C14765.3,179.003 14762.1,179.523 14758,179.523C14751.8,179.523 14747.5,178.327 14745.3,175.934C14744.3,174.974 14743.7,173.88 14743.3,172.651C14743,171.422 14742.8,169.766 14742.8,167.683L14742.8,148.493C14742.8,147.809 14742.7,147.325 14742.5,147.04C14742.2,146.756 14741.8,146.54 14741.2,146.393L14741.2,145.612L14748.2,145.612L14748.2,146.393C14747.6,146.556 14747.1,146.78 14746.9,147.065C14746.7,147.35 14746.6,147.826 14746.6,148.493Z" style="fill:rgb(255,64,97);fill-rule:nonzero;"/>
                            <path d="M14782.9,176.057L14782.9,148.493C14782.9,147.809 14782.8,147.325 14782.6,147.04C14782.4,146.756 14782,146.54 14781.4,146.393L14781.4,145.612L14788.3,145.612L14788.3,146.393C14787.7,146.556 14787.3,146.776 14787.1,147.053C14786.9,147.329 14786.7,147.809 14786.7,148.493L14786.7,176.057C14786.7,176.74 14786.8,177.22 14787.1,177.497C14787.3,177.774 14787.7,177.993 14788.3,178.156L14788.3,178.937L14781.4,178.937L14781.4,178.156C14782,177.993 14782.4,177.774 14782.6,177.497C14782.8,177.22 14782.9,176.74 14782.9,176.057Z" style="fill:rgb(255,64,97);fill-rule:nonzero;"/>
                            <path d="M14810.5,148.786L14810.5,176.057C14810.5,176.724 14810.6,177.2 14810.8,177.485C14811,177.77 14811.4,177.993 14812,178.156L14812,178.937L14805.1,178.937L14805.1,178.156C14805.7,177.993 14806.1,177.774 14806.3,177.497C14806.5,177.22 14806.6,176.74 14806.6,176.057L14806.6,148.786L14795.4,148.786C14794.7,148.786 14794.2,148.889 14793.9,149.096C14793.6,149.303 14793.4,149.72 14793.3,150.349L14792.5,150.349L14792.5,144.05L14793.3,144.05C14793.4,144.675 14793.6,145.092 14793.9,145.3C14794.2,145.508 14794.7,145.612 14795.4,145.612L14821.8,145.612C14822.4,145.612 14822.9,145.508 14823.2,145.3C14823.5,145.092 14823.7,144.675 14823.9,144.05L14824.6,144.05L14824.6,150.349L14823.9,150.349C14823.7,149.72 14823.5,149.303 14823.2,149.096C14822.9,148.889 14822.4,148.786 14821.8,148.786L14810.5,148.786Z" style="fill:rgb(255,64,97);fill-rule:nonzero;"/>
                        </g>
                    </g>
                </g>
            </g>
        </g>
    </g>
</svg>
