<?xml version="1.0" encoding="UTF-8" standalone="no"?>
<!DOCTYPE svg PUBLIC "-//W3C//DTD SVG 1.1//EN" "http://www.w3.org/Graphics/SVG/1.1/DTD/svg11.dtd">
<svg width="100%" height="100%" viewBox="0 0 132 132" version="1.1" xmlns="http://www.w3.org/2000/svg" xmlns:xlink="http://www.w3.org/1999/xlink" xml:space="preserve" xmlns:serif="http://www.serif.com/" style="fill-rule:evenodd;clip-rule:evenodd;stroke-linejoin:round;stroke-miterlimit:2;">
    <g transform="matrix(1,0,0,1,-1865.67,-3420.03)">
        <g id="FireB" transform="matrix(0.286575,0,0,0.286575,2518.43,3446.61)">
            <rect x="-2277.78" y="-92.74" width="458.365" height="458.365" style="fill:none;"/>
            <clipPath id="_clip1">
                <rect x="-2277.78" y="-92.74" width="458.365" height="458.365"/>
            </clipPath>
            <g clip-path="url(#_clip1)">
                <g transform="matrix(1.90323,0,0,1.90323,1850.35,-123.238)">
                    <g transform="matrix(1.55378,0,0,1.55378,-2359.35,-174.313)">
                        <path d="M200,122.5L122.5,200L200,277.5L277.5,200L200,122.5ZM200,145L145,200L200,255L255,200L200,145Z" style="fill:rgb(255,64,97);"/>
                    </g>
                    <g transform="matrix(1.83346,0,0,1.83346,-5893.58,-96.6244)">
                        <path d="M2097.12,93.22L2063.22,127.119L2097.12,161.017L2131.02,127.119L2097.12,93.22ZM2097.12,105.932L2075.93,127.119L2097.12,148.305L2118.3,127.119L2097.12,105.932Z" style="fill:rgb(255,64,97);"/>
                    </g>
                    <g transform="matrix(0.155378,0,0,0.155378,-2095.21,89.829)">
                        <path d="M300,200L200,300L300,400L400,300L300,200Z" style="fill:rgb(255,64,97);"/>
                    </g>
                </g>
            </g>
        </g>
    </g>
</svg>
