<?xml version="1.0" encoding="UTF-8" standalone="no"?>
<!DOCTYPE svg PUBLIC "-//W3C//DTD SVG 1.1//EN" "http://www.w3.org/Graphics/SVG/1.1/DTD/svg11.dtd">
<svg width="100%" height="100%" viewBox="0 0 568 68" version="1.1" xmlns="http://www.w3.org/2000/svg" xmlns:xlink="http://www.w3.org/1999/xlink" xml:space="preserve" xmlns:serif="http://www.serif.com/" style="fill-rule:evenodd;clip-rule:evenodd;stroke-linejoin:round;stroke-miterlimit:2;">
    <g transform="matrix(1,0,0,1,-2734.19,-4018.34)">
        <g id="extrasB" transform="matrix(1,0,0,1,1801.74,1722.73)">
            <rect x="932.458" y="2295.6" width="567.797" height="67.797" style="fill:none;"/>
            <clipPath id="_clip1">
                <rect x="932.458" y="2295.6" width="567.797" height="67.797"/>
            </clipPath>
            <g clip-path="url(#_clip1)">
                <g transform="matrix(1,0,0,1,1.93268e-12,-470.714)">
                    <g>
                        <g transform="matrix(1,0,0,1,-1130.76,2673.1)">
                            <g>
                                <g>
                                    <path d="M2097.12,93.22L2063.22,127.119L2097.12,161.017L2131.02,127.119L2097.12,93.22Z" style="fill:rgb(255,64,97);"/>
                                </g>
                            </g>
                        </g>
                        <g transform="matrix(3.67979,0,0,1,-52390.7,2572.93)">
                            <rect x="14500" y="225.788" width="33.898" height="3" style="fill:rgb(255,64,97);"/>
                        </g>
                    </g>
                    <g>
                        <g transform="matrix(1,0,0,1,-630.763,2673.1)">
                            <g>
                                <g>
                                    <path d="M2097.12,93.22L2063.22,127.119L2097.12,161.017L2131.02,127.119L2097.12,93.22Z" style="fill:rgb(255,64,97);"/>
                                </g>
                            </g>
                        </g>
                        <g transform="matrix(3.67979,0,0,1,-52015.4,2572.93)">
                            <rect x="14500" y="225.788" width="33.898" height="3" style="fill:rgb(255,64,97);"/>
                        </g>
                    </g>
                    <g transform="matrix(1,0,0,1,-13543.4,2637.94)">
                        <g>
                            <path d="M14659.9,163.386L14659.9,175.764L14681.2,175.764C14681.9,175.764 14682.4,175.658 14682.7,175.446C14683,175.235 14683.2,174.82 14683.3,174.201L14684.1,174.201L14684.1,180.5L14683.3,180.5C14683.2,179.881 14683,179.466 14682.7,179.255C14682.4,179.043 14681.9,178.937 14681.2,178.937L14654.5,178.937L14654.5,178.156C14655.1,177.993 14655.5,177.774 14655.7,177.497C14655.9,177.22 14656,176.74 14656,176.057L14656,148.493C14656,147.809 14655.9,147.329 14655.7,147.053C14655.5,146.776 14655.1,146.556 14654.5,146.393L14654.5,145.612L14680.9,145.612C14681.6,145.612 14682.1,145.508 14682.4,145.3C14682.6,145.092 14682.9,144.675 14683,144.05L14683.8,144.05L14683.8,150.349L14683,150.349C14682.9,149.737 14682.7,149.323 14682.4,149.108C14682.1,148.893 14681.6,148.786 14680.9,148.786L14659.9,148.786L14659.9,160.212L14673.7,160.212C14674.4,160.212 14674.8,160.106 14675.1,159.894C14675.4,159.683 14675.6,159.268 14675.8,158.649L14676.6,158.649L14676.6,164.948L14675.8,164.948C14675.6,164.33 14675.4,163.915 14675.1,163.703C14674.8,163.491 14674.4,163.386 14673.7,163.386L14659.9,163.386Z" style="fill:rgb(255,64,97);fill-rule:nonzero;"/>
                            <path d="M14706.1,161.046L14717,175.153C14718.5,177.074 14719.9,178.075 14721,178.156L14721,178.937L14712.5,178.937L14712.5,178.156C14713.3,178.026 14713.6,177.749 14713.6,177.326C14713.6,177.017 14713.2,176.293 14712.3,175.153L14703.7,164.124L14695.2,175.153C14694.3,176.325 14693.8,177.033 14693.8,177.277C14693.8,177.668 14694.2,177.961 14695,178.156L14695,178.937L14687,178.937L14687,178.156C14687.6,178.059 14688.3,177.778 14688.9,177.314C14689.5,176.85 14690.2,176.13 14691,175.153L14701.6,161.43L14693.3,150.764C14691.7,148.745 14690.8,147.545 14690.4,147.163C14690,146.78 14689.4,146.524 14688.7,146.393L14688.7,145.612L14697.2,145.612L14697.2,146.393C14696.4,146.638 14696,146.996 14696,147.468C14696,147.923 14696.4,148.583 14697,149.445L14704,158.356L14710.9,149.445C14711.6,148.436 14712,147.704 14712,147.248C14712,146.809 14711.6,146.524 14710.9,146.393L14710.9,145.612L14718.8,145.612L14718.8,146.393C14718.1,146.524 14717.4,146.902 14716.8,147.529C14716.1,148.155 14715.2,149.234 14714,150.764L14706.1,161.046Z" style="fill:rgb(255,64,97);fill-rule:nonzero;"/>
                            <path d="M14739.6,148.786L14739.6,176.057C14739.6,176.724 14739.7,177.2 14740,177.485C14740.2,177.77 14740.6,177.993 14741.2,178.156L14741.2,178.937L14734.2,178.937L14734.2,178.156C14734.9,177.993 14735.3,177.774 14735.5,177.497C14735.7,177.22 14735.8,176.74 14735.8,176.057L14735.8,148.786L14724.5,148.786C14723.8,148.786 14723.4,148.889 14723.1,149.096C14722.8,149.303 14722.6,149.72 14722.4,150.349L14721.6,150.349L14721.6,144.05L14722.4,144.05C14722.6,144.675 14722.8,145.092 14723.1,145.3C14723.4,145.508 14723.8,145.612 14724.5,145.612L14750.9,145.612C14751.6,145.612 14752.1,145.508 14752.4,145.3C14752.7,145.092 14752.9,144.675 14753,144.05L14753.8,144.05L14753.8,150.349L14753,150.349C14752.9,149.72 14752.7,149.303 14752.4,149.096C14752.1,148.889 14751.6,148.786 14750.9,148.786L14739.6,148.786Z" style="fill:rgb(255,64,97);fill-rule:nonzero;"/>
                            <path d="M14763.4,163.947L14763.4,176.06C14763.4,176.726 14763.5,177.202 14763.7,177.486C14763.9,177.77 14764.3,177.994 14764.9,178.156L14764.9,178.937L14758,178.937L14758,178.156C14758.6,177.993 14759,177.774 14759.2,177.497C14759.4,177.22 14759.5,176.74 14759.5,176.057L14759.5,148.493C14759.5,147.809 14759.4,147.325 14759.2,147.04C14759,146.756 14758.6,146.54 14758,146.393L14758,145.612L14776.3,145.612C14778.8,145.612 14780.7,145.747 14782.2,146.016C14783.7,146.285 14784.9,146.753 14786,147.421C14787.1,148.106 14788,149.043 14788.7,150.233C14789.5,151.585 14789.9,153.109 14789.9,154.804C14789.9,157.347 14789,159.421 14787.3,161.026C14785.6,162.631 14783.3,163.548 14780.4,163.776L14788.9,176.937C14789.4,177.75 14790.1,178.156 14791.1,178.156L14791.1,178.937L14783.3,178.937L14783.3,178.156C14784.1,178.026 14784.5,177.799 14784.5,177.474C14784.5,177.311 14784.3,176.783 14783.7,175.889L14776.1,163.947L14763.4,163.947ZM14763.4,160.773L14776.9,160.773C14778.7,160.773 14780.1,160.696 14781,160.541C14782,160.387 14782.8,160.106 14783.5,159.699C14785.2,158.723 14786,157.087 14786,154.792C14786,152.481 14785.2,150.837 14783.4,149.86C14782.7,149.437 14781.8,149.152 14780.9,149.006C14780,148.859 14778.5,148.786 14776.5,148.786L14763.4,148.786L14763.4,160.773Z" style="fill:rgb(255,64,97);fill-rule:nonzero;"/>
                            <path d="M14820,169.587L14802.2,169.587L14799.3,175.91C14799,176.512 14798.9,176.935 14798.9,177.18C14798.9,177.668 14799.4,177.993 14800.3,178.156L14800.3,178.937L14792.9,178.937L14792.9,178.156C14793.6,178.042 14794.1,177.798 14794.4,177.424C14794.8,177.049 14795.2,176.236 14795.8,174.982L14808,148.64C14808.3,148.005 14808.4,147.573 14808.4,147.346C14808.4,146.922 14808,146.605 14807.2,146.393L14807.2,145.612L14815.3,145.612L14815.3,146.393C14814.5,146.654 14814.2,146.996 14814.2,147.419C14814.2,147.598 14814.3,148.005 14814.6,148.64L14826.3,174.03C14827.1,175.902 14827.7,177.001 14828,177.326C14828.3,177.652 14828.9,177.928 14829.8,178.156L14829.8,178.937L14821.9,178.937L14821.9,178.156C14822.8,178.026 14823.3,177.668 14823.3,177.082C14823.3,176.822 14823.1,176.317 14822.8,175.568L14820,169.587ZM14818.6,166.413L14811.1,149.946L14803.6,166.413L14818.6,166.413Z" style="fill:rgb(255,64,97);fill-rule:nonzero;"/>
                            <path d="M14864.5,147.682L14861.1,153.986L14860.4,153.62C14860.6,152.888 14860.8,152.432 14860.8,152.253C14860.8,151.765 14860.2,151.236 14859,150.666C14855.7,149.136 14852.2,148.371 14848.6,148.371C14845.6,148.371 14842.9,148.931 14840.7,150.052C14839.6,150.604 14838.8,151.319 14838.2,152.196C14837.5,153.073 14837.2,153.999 14837.2,154.973C14837.2,155.786 14837.5,156.553 14838,157.276C14838.4,157.998 14839.1,158.539 14839.9,158.896C14840.8,159.302 14841.8,159.582 14843,159.737C14844.2,159.891 14846.1,160.009 14848.8,160.09C14852.6,160.204 14855.3,160.379 14856.9,160.615C14858.5,160.851 14859.8,161.262 14860.9,161.848C14863.6,163.394 14865,165.746 14865,168.903C14865,171.914 14863.8,174.38 14861.2,176.301C14858.5,178.449 14854.6,179.523 14849.7,179.523C14846.9,179.523 14844.5,179.239 14842.4,178.669C14840.3,178.099 14837.8,177.049 14834.9,175.519C14834,175.145 14833.6,174.958 14833.4,174.958C14833.2,174.958 14832.8,175.251 14832.3,175.837L14831.6,175.422L14835.3,169.294L14836,169.684C14835.6,170.336 14835.5,170.775 14835.5,171.003C14835.5,171.524 14836.5,172.329 14838.6,173.42C14840.5,174.396 14842.3,175.1 14844,175.532C14845.8,175.963 14847.6,176.179 14849.7,176.179C14853.8,176.179 14856.9,175.275 14859,173.469C14860.5,172.264 14861.2,170.832 14861.2,169.172C14861.2,166.991 14860,165.485 14857.5,164.655C14856.8,164.378 14855.9,164.204 14855.1,164.13C14854.3,164.057 14851.9,163.947 14848,163.801C14845.2,163.687 14843,163.475 14841.4,163.166C14839.8,162.857 14838.4,162.352 14837.1,161.652C14836,161.001 14835.1,160.09 14834.4,158.918C14833.7,157.746 14833.4,156.468 14833.4,155.085C14833.4,152.725 14834.3,150.698 14836,149.006C14837.3,147.769 14839.1,146.796 14841.4,146.088C14843.7,145.38 14846.2,145.026 14849,145.026C14851.2,145.026 14853.3,145.248 14855.2,145.69C14857.1,146.133 14859.3,146.895 14861.7,147.977C14862.2,148.207 14862.5,148.322 14862.7,148.322C14863,148.322 14863.4,147.994 14863.9,147.338L14864.5,147.682Z" style="fill:rgb(255,64,97);fill-rule:nonzero;"/>
                        </g>
                    </g>
                </g>
            </g>
        </g>
    </g>
</svg>
