<?xml version="1.0" encoding="UTF-8" standalone="no"?>
<!DOCTYPE svg PUBLIC "-//W3C//DTD SVG 1.1//EN" "http://www.w3.org/Graphics/SVG/1.1/DTD/svg11.dtd">
<svg width="100%" height="100%" viewBox="0 0 568 68" version="1.1" xmlns="http://www.w3.org/2000/svg" xmlns:xlink="http://www.w3.org/1999/xlink" xml:space="preserve" xmlns:serif="http://www.serif.com/" style="fill-rule:evenodd;clip-rule:evenodd;stroke-linejoin:round;stroke-miterlimit:2;">
    <g transform="matrix(1,0,0,1,-3351.99,-3782.74)">
        <g id="skillpointsB" transform="matrix(1,0,0,1,2419.53,1487.14)">
            <rect x="932.458" y="2295.6" width="567.797" height="67.797" style="fill:none;"/>
            <clipPath id="_clip1">
                <rect x="932.458" y="2295.6" width="567.797" height="67.797"/>
            </clipPath>
            <g clip-path="url(#_clip1)">
                <g transform="matrix(1,0,0,1,-1019.37,-3849.56)">
                    <g transform="matrix(1,0,0,1,-111.39,6051.94)">
                        <g>
                            <path d="M2097.12,93.22L2063.22,127.119L2097.12,161.017L2131.02,127.119L2097.12,93.22Z" style="fill:rgb(255,64,97);"/>
                        </g>
                    </g>
                    <g transform="matrix(1,0,0,1,388.61,6051.94)">
                        <g>
                            <path d="M2097.12,93.22L2063.22,127.119L2097.12,161.017L2131.02,127.119L2097.12,93.22Z" style="fill:rgb(255,64,97);"/>
                        </g>
                    </g>
                    <g transform="matrix(1,0,0,1,-19773,6077.63)">
                        <g>
                            <path d="M21885.5,89.756L21882.7,94.799L21882.1,94.506C21882.3,93.92 21882.4,93.555 21882.4,93.412C21882.4,93.021 21882,92.598 21881,92.142C21878.4,90.918 21875.6,90.306 21872.7,90.306C21870.3,90.306 21868.2,90.755 21866.4,91.651C21865.5,92.093 21864.8,92.665 21864.3,93.366C21863.8,94.068 21863.6,94.809 21863.6,95.588C21863.6,96.238 21863.8,96.852 21864.2,97.43C21864.6,98.008 21865.1,98.44 21865.7,98.727C21866.4,99.051 21867.3,99.275 21868.2,99.399C21869.2,99.522 21870.7,99.617 21872.9,99.681C21875.9,99.773 21878,99.913 21879.3,100.101C21880.6,100.29 21881.7,100.619 21882.5,101.088C21884.7,102.325 21885.8,104.206 21885.8,106.732C21885.8,109.141 21884.8,111.114 21882.8,112.65C21880.6,114.369 21877.5,115.228 21873.6,115.228C21871.4,115.228 21869.4,115 21867.7,114.545C21866,114.089 21864,113.249 21861.7,112.025C21861,111.726 21860.7,111.576 21860.5,111.576C21860.4,111.576 21860,111.81 21859.6,112.279L21859.1,111.947L21862,107.045L21862.6,107.357C21862.3,107.878 21862.2,108.23 21862.2,108.412C21862.2,108.829 21863,109.473 21864.7,110.346C21866.2,111.127 21867.6,111.69 21869,112.035C21870.4,112.38 21871.9,112.553 21873.6,112.553C21876.9,112.553 21879.4,111.83 21881.1,110.385C21882.2,109.421 21882.8,108.275 21882.8,106.947C21882.8,105.202 21881.8,103.998 21879.8,103.334C21879.2,103.112 21878.6,102.972 21877.9,102.914C21877.2,102.855 21875.3,102.767 21872.2,102.65C21869.9,102.559 21868.2,102.39 21866.9,102.142C21865.7,101.895 21864.5,101.491 21863.5,100.931C21862.6,100.411 21861.9,99.681 21861.3,98.744C21860.8,97.806 21860.5,96.784 21860.5,95.678C21860.5,93.79 21861.2,92.168 21862.6,90.814C21863.7,89.825 21865.1,89.047 21867,88.48C21868.8,87.914 21870.8,87.631 21873,87.631C21874.8,87.631 21876.4,87.808 21878,88.162C21879.5,88.516 21881.2,89.126 21883.1,89.991C21883.6,90.175 21883.8,90.267 21883.9,90.267C21884.2,90.267 21884.5,90.005 21884.9,89.48L21885.5,89.756Z" style="fill:rgb(255,64,97);fill-rule:nonzero;"/>
                            <path d="M21894.7,104.525L21894.7,112.455C21894.7,112.989 21894.8,113.37 21894.9,113.597C21895.1,113.825 21895.4,114.004 21895.9,114.135L21895.9,114.76L21890.4,114.76L21890.4,114.135C21890.8,114.004 21891.2,113.829 21891.3,113.607C21891.5,113.386 21891.6,113.002 21891.6,112.455L21891.6,90.404C21891.6,89.857 21891.5,89.47 21891.3,89.242C21891.2,89.014 21890.8,88.842 21890.4,88.724L21890.4,88.099L21895.9,88.099L21895.9,88.724C21895.4,88.855 21895.1,89.031 21894.9,89.252C21894.8,89.474 21894.7,89.858 21894.7,90.405L21894.7,101.485L21909.1,90.228C21909.6,89.838 21909.8,89.519 21909.8,89.271C21909.8,88.985 21909.6,88.803 21909.1,88.724L21909.1,88.099L21916.1,88.099L21916.1,88.724C21915.3,88.776 21914.6,89.096 21913.8,89.681L21903,98.083L21914.9,113.178C21915.2,113.542 21915.5,113.786 21915.7,113.91C21916,114.034 21916.3,114.109 21916.8,114.135L21916.8,114.76L21910.3,114.76L21910.3,114.135C21910.9,114.004 21911.2,113.816 21911.2,113.568C21911.2,113.412 21910.9,112.963 21910.3,112.221L21900.7,99.879L21894.7,104.525Z" style="fill:rgb(255,64,97);fill-rule:nonzero;"/>
                            <path d="M21921.4,112.455L21921.4,90.404C21921.4,89.857 21921.3,89.47 21921.2,89.242C21921,89.014 21920.7,88.842 21920.2,88.724L21920.2,88.099L21925.7,88.099L21925.7,88.724C21925.2,88.855 21924.9,89.03 21924.7,89.252C21924.6,89.473 21924.5,89.857 21924.5,90.404L21924.5,112.455C21924.5,113.002 21924.6,113.386 21924.7,113.607C21924.9,113.829 21925.2,114.004 21925.7,114.135L21925.7,114.76L21920.2,114.76L21920.2,114.135C21920.7,114.004 21921,113.829 21921.2,113.607C21921.3,113.386 21921.4,113.002 21921.4,112.455Z" style="fill:rgb(255,64,97);fill-rule:nonzero;"/>
                            <path d="M21935.9,112.221L21953,112.221C21953.5,112.221 21953.9,112.136 21954.1,111.967C21954.4,111.797 21954.5,111.465 21954.7,110.971L21955.3,110.971L21955.3,116.01L21954.7,116.01C21954.5,115.515 21954.4,115.183 21954.1,115.013C21953.9,114.844 21953.5,114.76 21953,114.76L21931.6,114.76L21931.6,114.135C21932.1,114.004 21932.5,113.829 21932.6,113.607C21932.8,113.386 21932.9,113.002 21932.9,112.455L21932.9,90.404C21932.9,89.857 21932.8,89.473 21932.6,89.252C21932.4,89.03 21932.1,88.855 21931.6,88.724L21931.6,88.099L21937.2,88.099L21937.2,88.724C21936.7,88.855 21936.4,89.03 21936.2,89.252C21936,89.473 21935.9,89.857 21935.9,90.404L21935.9,112.221Z" style="fill:rgb(255,64,97);fill-rule:nonzero;"/>
                            <path d="M21963.1,112.221L21980.1,112.221C21980.6,112.221 21981,112.136 21981.3,111.967C21981.5,111.797 21981.7,111.465 21981.8,110.971L21982.4,110.971L21982.4,116.01L21981.8,116.01C21981.7,115.515 21981.5,115.183 21981.3,115.013C21981,114.844 21980.6,114.76 21980.1,114.76L21958.8,114.76L21958.8,114.135C21959.3,114.004 21959.6,113.829 21959.8,113.607C21959.9,113.386 21960,113.002 21960,112.455L21960,90.404C21960,89.857 21959.9,89.473 21959.7,89.252C21959.6,89.03 21959.2,88.855 21958.8,88.724L21958.8,88.099L21964.3,88.099L21964.3,88.724C21963.8,88.855 21963.5,89.03 21963.3,89.252C21963.2,89.473 21963.1,89.857 21963.1,90.404L21963.1,112.221Z" style="fill:rgb(255,64,97);fill-rule:nonzero;"/>
                            <path d="M22000.2,102.767L22000.2,112.709C22000.2,113.112 22000.3,113.418 22000.5,113.627C22000.7,113.835 22001,114.004 22001.4,114.135L22001.4,114.76L21995.9,114.76L21995.9,114.135C21996.3,114.004 21996.7,113.835 21996.9,113.627C21997,113.418 21997.1,113.112 21997.1,112.709L21997.1,90.131C21997.1,89.74 21997,89.441 21996.9,89.232C21996.7,89.024 21996.3,88.855 21995.9,88.724L21995.9,88.099L22009.9,88.099C22011.9,88.099 22013.4,88.204 22014.5,88.412C22015.6,88.62 22016.6,88.998 22017.4,89.545C22018.3,90.092 22019,90.84 22019.6,91.791C22020.2,92.859 22020.5,94.056 22020.5,95.385C22020.5,97.207 22019.9,98.77 22018.8,100.072C22018,101.075 22016.9,101.775 22015.6,102.172C22014.2,102.569 22012.4,102.767 22009.9,102.767L22000.2,102.767ZM22000.2,100.228L22010.2,100.228C22011.7,100.228 22012.8,100.17 22013.5,100.053C22014.2,99.935 22014.9,99.707 22015.5,99.369C22016.8,98.588 22017.4,97.279 22017.4,95.443C22017.4,93.594 22016.8,92.279 22015.5,91.498C22014.9,91.159 22014.2,90.931 22013.5,90.814C22012.8,90.697 22011.7,90.638 22010.2,90.638L22000.2,90.638L22000.2,100.228Z" style="fill:rgb(255,64,97);fill-rule:nonzero;"/>
                            <path d="M22040,87.631C22044.7,87.631 22048.5,88.861 22051.4,91.322C22053,92.689 22054.2,94.362 22055,96.342C22055.7,97.969 22056,99.721 22056,101.596C22056,104.135 22055.3,106.511 22053.8,108.724C22052.2,111.172 22050,112.937 22047.2,114.017C22045.1,114.825 22042.7,115.228 22040,115.228C22035.4,115.228 22031.6,113.998 22028.7,111.537C22027.1,110.157 22025.9,108.484 22025.1,106.517C22024.4,104.903 22024.1,103.204 22024.1,101.42C22024.1,98.776 22024.8,96.342 22026.3,94.115C22027.8,91.706 22030,89.948 22032.9,88.842C22034.9,88.073 22037.3,87.67 22040,87.631ZM22040,90.306C22036,90.306 22032.8,91.426 22030.5,93.666C22028.4,95.723 22027.3,98.308 22027.3,101.42C22027.3,104.545 22028.4,107.136 22030.5,109.193C22032.8,111.433 22036,112.553 22040,112.553C22044.1,112.553 22047.3,111.433 22049.6,109.193C22051.7,107.136 22052.8,104.597 22052.8,101.576C22052.8,98.308 22051.7,95.671 22049.6,93.666C22048.3,92.468 22047,91.628 22045.5,91.146C22043.9,90.599 22042.1,90.319 22040,90.306Z" style="fill:rgb(255,64,97);fill-rule:nonzero;"/>
                            <path d="M22062.4,112.455L22062.4,90.404C22062.4,89.857 22062.4,89.47 22062.2,89.242C22062,89.014 22061.7,88.842 22061.2,88.724L22061.2,88.099L22066.8,88.099L22066.8,88.724C22066.3,88.855 22065.9,89.03 22065.8,89.252C22065.6,89.473 22065.5,89.857 22065.5,90.404L22065.5,112.455C22065.5,113.002 22065.6,113.386 22065.8,113.607C22065.9,113.829 22066.3,114.004 22066.8,114.135L22066.8,114.76L22061.2,114.76L22061.2,114.135C22061.7,114.004 22062,113.829 22062.2,113.607C22062.4,113.386 22062.4,113.002 22062.4,112.455Z" style="fill:rgb(255,64,97);fill-rule:nonzero;"/>
                            <path d="M22076.7,91.478L22076.7,112.455C22076.7,112.989 22076.8,113.37 22076.9,113.597C22077.1,113.825 22077.4,114.004 22077.9,114.135L22077.9,114.76L22072.6,114.76L22072.6,114.135C22073.1,114.004 22073.5,113.829 22073.6,113.607C22073.8,113.386 22073.9,113.002 22073.9,112.455L22073.9,90.404C22073.9,89.857 22073.8,89.47 22073.6,89.242C22073.5,89.014 22073.1,88.842 22072.6,88.724L22072.6,88.099L22080.3,88.099L22080.3,88.724C22079.7,88.933 22079.4,89.226 22079.4,89.603C22079.4,89.864 22079.7,90.352 22080.3,91.068L22096.4,109.857L22096.4,90.404C22096.4,89.857 22096.3,89.47 22096.1,89.242C22095.9,89.014 22095.6,88.842 22095.1,88.724L22095.1,88.099L22100.4,88.099L22100.4,88.724C22099.9,88.842 22099.6,89.014 22099.4,89.242C22099.2,89.47 22099.2,89.857 22099.2,90.404L22099.2,112.455C22099.2,113.002 22099.2,113.386 22099.4,113.607C22099.6,113.829 22099.9,114.004 22100.4,114.135L22100.4,114.76L22094.3,114.76L22094.3,114.135C22094.9,113.978 22095.2,113.711 22095.2,113.334C22095.2,113.047 22094.9,112.579 22094.3,111.928L22076.7,91.478Z" style="fill:rgb(255,64,97);fill-rule:nonzero;"/>
                            <path d="M22118.1,90.638L22118.1,112.455C22118.1,112.989 22118.2,113.37 22118.4,113.597C22118.5,113.825 22118.9,114.004 22119.4,114.135L22119.4,114.76L22113.8,114.76L22113.8,114.135C22114.3,114.004 22114.6,113.829 22114.8,113.607C22115,113.386 22115.1,113.002 22115.1,112.455L22115.1,90.638L22106,90.638C22105.5,90.638 22105.1,90.721 22104.9,90.886C22104.6,91.052 22104.5,91.386 22104.4,91.888L22103.7,91.888L22103.7,86.849L22104.4,86.849C22104.5,87.349 22104.6,87.683 22104.9,87.849C22105.1,88.016 22105.5,88.099 22106,88.099L22127.2,88.099C22127.7,88.099 22128.1,88.016 22128.3,87.849C22128.5,87.683 22128.7,87.349 22128.8,86.849L22129.5,86.849L22129.5,91.888L22128.8,91.888C22128.7,91.386 22128.5,91.052 22128.3,90.886C22128.1,90.721 22127.7,90.638 22127.2,90.638L22118.1,90.638Z" style="fill:rgb(255,64,97);fill-rule:nonzero;"/>
                            <path d="M22157.9,89.756L22155.1,94.799L22154.6,94.506C22154.8,93.92 22154.9,93.555 22154.9,93.412C22154.9,93.021 22154.4,92.598 22153.5,92.142C22150.9,90.918 22148.1,90.306 22145.2,90.306C22142.7,90.306 22140.7,90.755 22138.9,91.651C22138,92.093 22137.3,92.665 22136.8,93.366C22136.3,94.068 22136.1,94.809 22136.1,95.588C22136.1,96.238 22136.3,96.852 22136.7,97.43C22137.1,98.008 22137.6,98.44 22138.2,98.727C22138.9,99.051 22139.7,99.275 22140.7,99.399C22141.7,99.522 22143.2,99.617 22145.4,99.681C22148.4,99.773 22150.5,99.913 22151.8,100.101C22153.1,100.29 22154.1,100.619 22155,101.088C22157.2,102.325 22158.3,104.206 22158.3,106.732C22158.3,109.141 22157.3,111.114 22155.3,112.65C22153.1,114.369 22150,115.228 22146.1,115.228C22143.8,115.228 22141.9,115 22140.2,114.545C22138.5,114.089 22136.5,113.249 22134.2,112.025C22133.5,111.726 22133.1,111.576 22133,111.576C22132.8,111.576 22132.5,111.81 22132.1,112.279L22131.6,111.947L22134.5,107.045L22135.1,107.357C22134.8,107.878 22134.7,108.23 22134.7,108.412C22134.7,108.829 22135.5,109.473 22137.2,110.346C22138.7,111.127 22140.1,111.69 22141.5,112.035C22142.9,112.38 22144.4,112.553 22146,112.553C22149.3,112.553 22151.8,111.83 22153.5,110.385C22154.7,109.421 22155.2,108.275 22155.2,106.947C22155.2,105.202 22154.3,103.998 22152.3,103.334C22151.7,103.112 22151.1,102.972 22150.4,102.914C22149.7,102.855 22147.8,102.767 22144.7,102.65C22142.4,102.559 22140.7,102.39 22139.4,102.142C22138.1,101.895 22137,101.491 22136,100.931C22135.1,100.411 22134.4,99.681 22133.8,98.744C22133.3,97.806 22133,96.784 22133,95.678C22133,93.79 22133.7,92.168 22135.1,90.814C22136.2,89.825 22137.6,89.047 22139.4,88.48C22141.3,87.914 22143.3,87.631 22145.5,87.631C22147.3,87.631 22148.9,87.808 22150.4,88.162C22152,88.516 22153.7,89.126 22155.6,89.991C22156.1,90.175 22156.3,90.267 22156.4,90.267C22156.7,90.267 22157,90.005 22157.4,89.48L22157.9,89.756Z" style="fill:rgb(255,64,97);fill-rule:nonzero;"/>
                        </g>
                    </g>
                </g>
            </g>
        </g>
    </g>
</svg>
