<?xml version="1.0" encoding="UTF-8" standalone="no"?>
<!DOCTYPE svg PUBLIC "-//W3C//DTD SVG 1.1//EN" "http://www.w3.org/Graphics/SVG/1.1/DTD/svg11.dtd">
<svg width="100%" height="100%" viewBox="0 0 2481 2481" version="1.1" xmlns="http://www.w3.org/2000/svg" xmlns:xlink="http://www.w3.org/1999/xlink" xml:space="preserve" xmlns:serif="http://www.serif.com/" style="fill-rule:evenodd;clip-rule:evenodd;stroke-linejoin:round;stroke-miterlimit:2;">
    <g transform="matrix(1,0,0,1,-8064,-2688)">
        <g id="Artboard4.2" transform="matrix(1,0,0,1,-0.648294,2688)">
            <rect x="8064.65" y="0" width="2480.32" height="2480.32" style="fill:none;"/>
            <clipPath id="_clip1">
                <rect x="8064.65" y="0" width="2480.32" height="2480.32"/>
            </clipPath>
            <g clip-path="url(#_clip1)">
                <g transform="matrix(1.00633,0,0,1.00633,-51.0642,-37.8847)">
                    <g transform="matrix(2.76897,0,0,2.76897,5751.21,-1199.84)">
                        <path d="M1643.43,785.64C1602.34,875.752 1620.62,897.379 1638.32,905.189C1641.69,906.673 1644.99,907.628 1648.01,908.46C1652.08,909.582 1654.69,909.687 1654.58,911.628C1654.49,913.083 1654.05,913.497 1646.13,913.899C1628.41,914.801 1590.34,917.804 1567.54,997.102L1585.84,997.102C1608.04,920.808 1629.61,919.306 1646.43,918.405C1654.24,917.987 1659.53,917.656 1659.53,911.732C1659.53,907.354 1657.19,906.293 1651.84,904.978C1649.15,904.318 1642.51,902.4 1640.12,901.284C1626.01,894.676 1611.94,876.353 1637.72,810.572L1705.8,997.102L1725.6,997.102L1648.23,785.64L1643.43,785.64Z" style="fill:white;fill-rule:nonzero;"/>
                    </g>
                    <g transform="matrix(2.07021,0,0,2.07021,6714.72,-230.15)">
                        <path d="M854.893,726.348C822.426,726.348 796.044,752.604 795.839,785.022L795.838,785.403C795.838,752.81 769.376,726.348 736.782,726.348C769.376,726.348 795.838,699.886 795.838,667.293L795.839,667.675C796.044,700.092 822.426,726.348 854.893,726.348Z" style="fill:white;"/>
                    </g>
                    <g transform="matrix(2.07021,0,0,2.07021,6689.81,-1300.42)">
                        <path d="M1359.36,1370.03C1359.36,1376.7 1364.72,1382.13 1371.36,1382.24L1371.36,1382.24L1359.36,1382.24L1359.36,1382.24L1334.93,1382.24L1334.93,1113.22C1334.93,1106.48 1329.46,1101.01 1322.72,1101.01L1334.93,1101.01L1334.93,1101.01L1359.36,1101.01L1359.36,1370.03Z" style="fill:white;fill-rule:nonzero;"/>
                    </g>
                    <g transform="matrix(2.07021,0,0,2.07021,7253.13,-1300.42)">
                        <path d="M1359.36,1370.03C1359.36,1376.7 1364.72,1382.13 1371.36,1382.24L1371.36,1382.24L1359.36,1382.24L1359.36,1382.24L1334.93,1382.24L1334.93,1113.22C1334.93,1106.48 1329.46,1101.01 1322.72,1101.01L1334.93,1101.01L1334.93,1101.01L1359.36,1101.01L1359.36,1370.03Z" style="fill:white;fill-rule:nonzero;"/>
                    </g>
                    <g transform="matrix(2.07021,0,0,2.07021,6530.39,-1300.42)">
                        <path d="M1534.78,1101.01C1612.64,1101.01 1675.6,1163.97 1675.6,1241.83C1675.6,1319.29 1612.64,1382.24 1534.78,1382.24L1448.36,1382.24C1455.11,1382.24 1460.58,1376.77 1460.58,1370.03L1460.58,1113.22C1460.58,1106.51 1455.15,1101.05 1448.44,1101.01L1448.36,1101.01L1534.78,1101.01ZM1485,1376.28L1485,1106.98L1534.78,1106.98C1599,1106.98 1651.18,1167.58 1651.18,1241.83C1651.18,1316.08 1599,1376.28 1534.78,1376.28L1485,1376.28Z" style="fill:white;"/>
                    </g>
                    <g transform="matrix(2.07021,0,0,2.07021,1169.03,-1300.42)">
                        <path d="M3503.98,1230.42C3497.41,1226.18 3491.81,1220.57 3487.57,1214.01L3741.9,976.083L3503.98,1230.42Z" style="fill:white;"/>
                    </g>
                    <g transform="matrix(2.07021,0,0,2.07021,8662.97,57.4164)">
                        <path d="M854.893,726.348C822.426,726.348 796.044,752.604 795.839,785.022L795.838,785.403C795.838,752.81 769.376,726.348 736.782,726.348C769.376,726.348 795.838,699.886 795.838,667.293L795.839,667.675C796.044,700.092 822.426,726.348 854.893,726.348Z" style="fill:white;"/>
                    </g>
                    <g transform="matrix(2.07021,0,0,2.07021,1153.42,-1300.42)">
                        <path d="M4393.95,1395.16C4400.52,1399.4 4406.12,1405.01 4410.36,1411.57L4156.03,1649.5L4393.95,1395.16Z" style="fill:white;"/>
                    </g>
                    <g transform="matrix(2.07021,0,0,2.07021,1169.03,-1300.42)">
                        <path d="M3630.74,1101.01L3774.47,1101.01L3774.47,1148.74L3774.47,1148.88C3774.4,1172.49 3758.39,1187.29 3729.57,1192.87C3776.49,1201.68 3814.6,1230.18 3814.6,1285.97C3814.6,1300.33 3812.11,1312.88 3807.61,1323.74C3832.85,1371.06 3922.72,1395.43 3964.23,1351.12C3975.47,1339.1 3980.28,1323.47 3974.67,1307.44C3949.78,1236.11 3828.97,1261.75 3804.52,1185.21C3796.51,1160.36 3803.32,1134.32 3820.94,1116.68C3855.46,1082.25 3942.56,1086.26 3979.88,1123.1L3969.45,1161.57C3969.45,1161.57 3965.44,1116.28 3916.87,1103.46C3854.66,1086.26 3792.1,1128.7 3819.33,1170.78C3853.85,1224.08 3974.67,1214.06 3991.88,1291.01C3997.09,1314.25 3987.48,1337.89 3966.24,1357.13C3924.09,1400.8 3834.99,1380.74 3791.69,1348.31L3791.69,1348.31C3769.15,1372.14 3732.71,1382.24 3695.04,1382.24L3614.64,1382.24C3621.39,1382.24 3626.86,1376.77 3626.86,1370.03L3626.86,1118.22L3614.64,1118.22L3630.74,1101.01ZM3695.04,1195.66C3751.65,1195.66 3789.37,1227.77 3789.37,1285.97C3789.37,1344.57 3751.65,1376.28 3695.04,1376.28L3651.28,1376.28L3651.28,1275.93C3651.69,1243.02 3654.1,1195.66 3695.04,1195.66ZM3750.03,1106.98L3750.03,1148.74C3749.37,1181.14 3728.62,1189.69 3695.04,1189.69C3670.15,1189.69 3657.71,1204.49 3651.28,1223.75L3651.28,1106.98L3750.03,1106.98Z" style="fill:white;"/>
                    </g>
                    <g transform="matrix(2.07021,0,0,2.07021,-5639.52,-1300.42)">
                        <path d="M6873.32,1150.45C6911.33,1195.52 6918.99,1261.28 6888.19,1315.18C6848.46,1384.26 6760.57,1407.52 6691.54,1368.24C6622.95,1328.44 6599.28,1240.42 6638.97,1171.29C6678.69,1102.6 6766.59,1078.94 6835.22,1118.63C6842.83,1123.02 6849.89,1128 6856.38,1133.49L6851.55,1138C6845.92,1132.73 6839.55,1127.98 6832.41,1123.86C6769.8,1087.77 6695.55,1127.07 6662.24,1184.55C6628.96,1242.43 6632.16,1326.43 6694.75,1362.61C6757.36,1398.69 6831.61,1359.79 6864.92,1301.91C6890.27,1257.82 6894.45,1198.57 6867.33,1156.85L6873.32,1150.45Z" style="fill:white;fill-rule:nonzero;"/>
                    </g>
                </g>
            </g>
        </g>
    </g>
</svg>
