<?xml version="1.0" encoding="UTF-8" standalone="no"?>
<!DOCTYPE svg PUBLIC "-//W3C//DTD SVG 1.1//EN" "http://www.w3.org/Graphics/SVG/1.1/DTD/svg11.dtd">
<svg width="100%" height="100%" viewBox="0 0 1000 132" version="1.1" xmlns="http://www.w3.org/2000/svg" xmlns:xlink="http://www.w3.org/1999/xlink" xml:space="preserve" xmlns:serif="http://www.serif.com/" style="fill-rule:evenodd;clip-rule:evenodd;stroke-linejoin:round;stroke-miterlimit:2;">
    <g transform="matrix(1,0,0,1,-2228.39,-13354.8)">
        <g id="aimE" transform="matrix(0.520833,0,0,0.121626,176.302,13354.8)">
            <rect x="3940" y="0" width="1920" height="1080" style="fill:none;"/>
            <clipPath id="_clip1">
                <rect x="3940" y="0" width="1920" height="1080"/>
            </clipPath>
            <g clip-path="url(#_clip1)">
                <g transform="matrix(1.92,0,0,8.22194,-57461.6,-3899.85)">
                    <path d="M32578.1,538.5L32980,538.5L32980,541.5L32578.1,541.5L32513.9,605.678L32513.9,586.61L32560.5,540C32560.5,540 32513.9,493.39 32513.9,493.39L32513.9,474.322L32578.1,538.5Z" style="fill:rgb(64,255,239);fill-opacity:0.5;"/>
                    <path d="M32381.9,538.5L32446.1,474.322L32446.1,493.39L32399.5,540C32399.5,540 32446.1,586.61 32446.1,586.61L32446.1,605.678L32381.9,541.5L31980,541.5L31980,538.5L32381.9,538.5Z" style="fill:rgb(64,255,239);fill-opacity:0.5;"/>
                    <g transform="matrix(1,0,0,1,27752.8,79.4612)">
                        <g opacity="0.75">
                            <g transform="matrix(0.847458,0,0,0.847458,4557.67,291.047)">
                                <path d="M200,122.5L122.5,200L200,277.5L277.5,200L200,122.5ZM200,145L145,200L200,255L255,200L200,145Z" style="fill:rgb(64,255,239);"/>
                            </g>
                        </g>
                    </g>
                    <g transform="matrix(0.0847458,0,0,0.0847458,32454.6,514.576)">
                        <path d="M300,200L200,300L300,400L400,300L300,200Z" style="fill:rgb(64,255,239);"/>
                    </g>
                </g>
            </g>
        </g>
    </g>
</svg>
