<?xml version="1.0" encoding="UTF-8" standalone="no"?>
<!DOCTYPE svg PUBLIC "-//W3C//DTD SVG 1.1//EN" "http://www.w3.org/Graphics/SVG/1.1/DTD/svg11.dtd">
<svg width="100%" height="100%" viewBox="0 0 298 68" version="1.1" xmlns="http://www.w3.org/2000/svg" xmlns:xlink="http://www.w3.org/1999/xlink" xml:space="preserve" xmlns:serif="http://www.serif.com/" style="fill-rule:evenodd;clip-rule:evenodd;stroke-linejoin:round;stroke-miterlimit:2;">
    <g transform="matrix(1,0,0,1,-2228.39,-12864.9)">
        <g id="demoE" transform="matrix(0.155041,0,0,0.0627746,1617.52,12864.9)">
            <rect x="3940" y="0" width="1920" height="1080" style="fill:none;"/>
            <clipPath id="_clip1">
                <rect x="3940" y="0" width="1920" height="1080"/>
            </clipPath>
            <g clip-path="url(#_clip1)">
                <g transform="matrix(6.44992,0,0,15.93,-22319.9,-11541.1)">
                    <g transform="matrix(1,0,0,1,2008.14,631.271)">
                        <g>
                            <g>
                                <path d="M2097.12,93.22L2063.22,127.119L2097.12,161.017L2131.02,127.119L2097.12,93.22Z" style="fill:rgb(64,255,239);"/>
                            </g>
                        </g>
                    </g>
                    <g transform="matrix(1,0,0,1,-24188.7,47.3406)">
                        <g>
                            <path d="M28397.2,725.173L28397.2,696.926C28397.2,696.437 28397.1,696.063 28396.9,695.803C28396.7,695.542 28396.3,695.331 28395.7,695.168L28395.7,694.387L28413.3,694.387C28417.2,694.387 28420.3,694.94 28422.4,696.047C28425.1,697.43 28427.1,699.562 28428.5,702.443C28429.7,704.966 28430.4,707.831 28430.4,711.037C28430.4,714.829 28429.5,718.101 28427.9,720.852C28426.4,723.293 28424.5,725.047 28422.3,726.113C28420,727.179 28417,727.712 28413.3,727.712L28395.7,727.712L28395.7,726.931C28396.3,726.768 28396.7,726.556 28396.9,726.296C28397.1,726.035 28397.2,725.661 28397.2,725.173ZM28401.1,724.538L28413.1,724.538C28416.6,724.538 28419.3,723.993 28421,722.902C28423,721.6 28424.5,719.606 28425.4,716.921C28426,715.13 28426.3,713.169 28426.3,711.037C28426.3,707.163 28425.4,703.957 28423.4,701.418C28422.3,700.018 28421,699.025 28419.4,698.439C28417.9,697.853 28415.8,697.56 28413.1,697.56L28401.1,697.56L28401.1,724.538Z" style="fill:rgb(64,255,239);fill-rule:nonzero;"/>
                            <path d="M28442.2,712.16L28442.2,724.538L28463.6,724.538C28464.3,724.538 28464.8,724.432 28465.1,724.221C28465.3,724.009 28465.6,723.594 28465.7,722.976L28466.5,722.976L28466.5,729.274L28465.7,729.274C28465.5,728.656 28465.3,728.241 28465,728.029C28464.7,727.818 28464.3,727.712 28463.6,727.712L28436.8,727.712L28436.8,726.931C28437.5,726.768 28437.9,726.548 28438.1,726.271C28438.3,725.995 28438.4,725.515 28438.4,724.831L28438.4,697.268C28438.4,696.584 28438.3,696.104 28438.1,695.827C28437.9,695.55 28437.5,695.331 28436.8,695.168L28436.8,694.387L28463.3,694.387C28464,694.387 28464.4,694.283 28464.7,694.074C28465,693.866 28465.2,693.449 28465.4,692.824L28466.2,692.824L28466.2,699.123L28465.4,699.123C28465.2,698.511 28465,698.098 28464.7,697.883C28464.5,697.668 28464,697.56 28463.3,697.56L28442.2,697.56L28442.2,708.986L28456,708.986C28456.7,708.986 28457.2,708.88 28457.5,708.669C28457.8,708.457 28458,708.042 28458.1,707.424L28458.9,707.424L28458.9,713.723L28458.1,713.723C28458,713.104 28457.8,712.689 28457.5,712.477C28457.2,712.266 28456.7,712.16 28456,712.16L28442.2,712.16Z" style="fill:rgb(64,255,239);fill-rule:nonzero;"/>
                            <path d="M28491.9,727.712L28477.9,699.69L28477.9,724.829C28477.9,725.497 28478,725.974 28478.2,726.259C28478.4,726.544 28478.8,726.768 28479.4,726.931L28479.4,727.712L28472.8,727.712L28472.8,726.931C28473.4,726.768 28473.9,726.548 28474.1,726.271C28474.3,725.995 28474.4,725.515 28474.4,724.831L28474.4,697.268C28474.4,696.584 28474.3,696.1 28474.1,695.815C28473.9,695.53 28473.4,695.314 28472.8,695.168L28472.8,694.387L28481.5,694.387L28481.5,695.168C28480.7,695.445 28480.3,695.786 28480.3,696.193C28480.3,696.389 28480.5,697.015 28481.1,698.073L28492.2,720.041L28503.3,697.878C28503.7,697.097 28503.9,696.543 28503.9,696.218C28503.9,695.795 28503.5,695.445 28502.7,695.168L28502.7,694.387L28511.4,694.387L28511.4,695.168C28510.8,695.331 28510.4,695.55 28510.2,695.827C28510,696.104 28509.9,696.584 28509.9,697.268L28509.9,724.831C28509.9,725.498 28510,725.974 28510.2,726.259C28510.4,726.544 28510.8,726.768 28511.4,726.931L28511.4,727.712L28504.5,727.712L28504.5,726.931C28505.1,726.768 28505.5,726.548 28505.7,726.271C28505.9,725.994 28506,725.514 28506,724.829L28506,699.69L28491.9,727.712Z" style="fill:rgb(64,255,239);fill-rule:nonzero;"/>
                            <path d="M28537.8,693.801C28543.6,693.801 28548.4,695.339 28552,698.415C28554,700.124 28555.5,702.215 28556.5,704.689C28557.4,706.724 28557.8,708.913 28557.8,711.257C28557.8,714.431 28556.9,717.401 28555.1,720.168C28553.1,723.228 28550.3,725.433 28546.8,726.784C28544.1,727.793 28541.2,728.298 28537.8,728.298C28532,728.298 28527.3,726.76 28523.7,723.684C28521.7,721.958 28520.2,719.867 28519.1,717.409C28518.3,715.391 28517.9,713.267 28517.9,711.037C28517.9,707.733 28518.8,704.689 28520.6,701.906C28522.5,698.895 28525.3,696.698 28528.9,695.314C28531.4,694.354 28534.4,693.85 28537.8,693.801ZM28537.8,697.145C28532.8,697.145 28528.8,698.545 28525.9,701.345C28523.2,703.916 28521.9,707.147 28521.9,711.037C28521.9,714.943 28523.2,718.182 28525.9,720.754C28528.8,723.553 28532.8,724.953 28537.8,724.953C28542.9,724.953 28546.9,723.553 28549.8,720.754C28552.4,718.182 28553.8,715.008 28553.8,711.232C28553.8,707.147 28552.4,703.851 28549.8,701.345C28548.2,699.847 28546.5,698.797 28544.7,698.195C28542.6,697.512 28540.3,697.162 28537.8,697.145Z" style="fill:rgb(64,255,239);fill-rule:nonzero;"/>
                        </g>
                    </g>
                </g>
            </g>
        </g>
    </g>
</svg>
