<?xml version="1.0" encoding="UTF-8" standalone="no"?>
<!DOCTYPE svg PUBLIC "-//W3C//DTD SVG 1.1//EN" "http://www.w3.org/Graphics/SVG/1.1/DTD/svg11.dtd">
<svg width="100%" height="100%" viewBox="0 0 568 68" version="1.1" xmlns="http://www.w3.org/2000/svg" xmlns:xlink="http://www.w3.org/1999/xlink" xml:space="preserve" xmlns:serif="http://www.serif.com/" style="fill-rule:evenodd;clip-rule:evenodd;stroke-linejoin:round;stroke-miterlimit:2;">
    <g transform="matrix(1,0,0,1,-2734.19,-12629.3)">
        <g id="inventoryE" transform="matrix(1,0,0,1,1801.74,10333.7)">
            <rect x="932.458" y="2295.6" width="567.797" height="67.797" style="fill:none;"/>
            <clipPath id="_clip1">
                <rect x="932.458" y="2295.6" width="567.797" height="67.797"/>
            </clipPath>
            <g clip-path="url(#_clip1)">
                <g transform="matrix(1,0,0,1,-2777.54,-704.26)">
                    <g>
                        <g transform="matrix(1,0,0,1,1646.78,2906.64)">
                            <g>
                                <g>
                                    <path d="M2097.12,93.22L2063.22,127.119L2097.12,161.017L2131.02,127.119L2097.12,93.22Z" style="fill:rgb(64,255,239);"/>
                                </g>
                            </g>
                        </g>
                        <g transform="matrix(0.5,0,0,0.5,2746.18,2970.2)">
                            <g>
                                <g>
                                    <path d="M2097.12,93.22L2063.22,127.119L2097.12,161.017L2131.02,127.119L2097.12,93.22Z" style="fill:rgb(64,255,239);"/>
                                </g>
                            </g>
                        </g>
                    </g>
                    <g>
                        <g transform="matrix(0.5,0,0,0.5,3144.49,2970.2)">
                            <g>
                                <g>
                                    <path d="M2097.12,93.22L2063.22,127.119L2097.12,161.017L2131.02,127.119L2097.12,93.22Z" style="fill:rgb(64,255,239);"/>
                                </g>
                            </g>
                        </g>
                        <g transform="matrix(1,0,0,1,2146.78,2906.64)">
                            <g>
                                <g>
                                    <g>
                                        <path d="M2097.12,93.22L2063.22,127.119L2097.12,161.017L2131.02,127.119L2097.12,93.22Z" style="fill:rgb(64,255,239);"/>
                                    </g>
                                </g>
                            </g>
                        </g>
                    </g>
                    <g transform="matrix(1,0,0,1,957.159,2457.02)">
                        <path d="M2880.74,590.522L2880.74,562.959C2880.74,562.275 2880.64,561.791 2880.43,561.506C2880.21,561.222 2879.8,561.006 2879.18,560.859L2879.18,560.078L2886.14,560.078L2886.14,560.859C2885.52,561.022 2885.1,561.242 2884.89,561.519C2884.68,561.795 2884.58,562.275 2884.58,562.959L2884.58,590.522C2884.58,591.206 2884.68,591.686 2884.88,591.963C2885.08,592.24 2885.5,592.459 2886.14,592.622L2886.14,593.403L2879.18,593.403L2879.18,592.622C2879.82,592.459 2880.23,592.24 2880.44,591.963C2880.64,591.686 2880.74,591.206 2880.74,590.522Z" style="fill:rgb(64,255,239);fill-rule:nonzero;"/>
                        <path d="M2898.54,564.302L2898.54,590.522C2898.54,591.19 2898.65,591.666 2898.86,591.951C2899.07,592.236 2899.48,592.459 2900.1,592.622L2900.1,593.403L2893.49,593.403L2893.49,592.622C2894.12,592.459 2894.54,592.24 2894.74,591.963C2894.95,591.686 2895.05,591.206 2895.05,590.522L2895.05,562.959C2895.05,562.275 2894.94,561.791 2894.73,561.506C2894.52,561.222 2894.11,561.006 2893.49,560.859L2893.49,560.078L2903.06,560.078L2903.06,560.859C2902.3,561.12 2901.91,561.486 2901.91,561.958C2901.91,562.284 2902.3,562.894 2903.06,563.789L2923.15,587.275L2923.15,562.959C2923.15,562.275 2923.04,561.791 2922.83,561.506C2922.62,561.222 2922.2,561.006 2921.59,560.859L2921.59,560.078L2928.2,560.078L2928.2,560.859C2927.59,561.006 2927.17,561.222 2926.96,561.506C2926.75,561.791 2926.64,562.275 2926.64,562.959L2926.64,590.522C2926.64,591.206 2926.75,591.686 2926.96,591.963C2927.17,592.24 2927.59,592.459 2928.2,592.622L2928.2,593.403L2920.51,593.403L2920.51,592.622C2921.26,592.427 2921.63,592.093 2921.63,591.621C2921.63,591.263 2921.29,590.677 2920.61,589.863L2898.54,564.302Z" style="fill:rgb(64,255,239);fill-rule:nonzero;"/>
                        <path d="M2949.92,589.054L2960.71,564.375C2961.17,563.366 2961.4,562.617 2961.4,562.129C2961.4,561.51 2960.93,561.087 2959.98,560.859L2959.98,560.078L2967.53,560.078L2967.53,560.859C2966.77,561.087 2966.24,561.388 2965.96,561.763C2965.67,562.137 2965.14,563.219 2964.36,565.01L2953.61,589.229C2953.2,590.189 2953,590.881 2953,591.304C2953,591.987 2953.46,592.427 2954.39,592.622L2954.39,593.403L2945.11,593.403L2945.11,592.622C2946.03,592.427 2946.5,591.971 2946.5,591.255C2946.5,590.864 2946.29,590.189 2945.86,589.229L2934.92,564.277C2934.32,562.926 2933.87,562.072 2933.58,561.714C2933.28,561.356 2932.77,561.071 2932.04,560.859L2932.04,560.078L2940.01,560.078L2940.01,560.859C2939.05,561.087 2938.57,561.51 2938.57,562.129C2938.57,562.682 2938.78,563.431 2939.2,564.375L2949.92,589.054Z" style="fill:rgb(64,255,239);fill-rule:nonzero;"/>
                        <path d="M2976.74,577.852L2976.74,590.23L2998.1,590.23C2998.78,590.23 2999.27,590.124 2999.55,589.912C2999.84,589.701 3000.05,589.286 3000.2,588.667L3000.98,588.667L3000.98,594.966L3000.2,594.966C3000.04,594.347 2999.81,593.932 2999.53,593.721C2999.24,593.509 2998.76,593.403 2998.08,593.403L2971.34,593.403L2971.34,592.622C2971.98,592.459 2972.4,592.24 2972.6,591.963C2972.8,591.686 2972.91,591.206 2972.91,590.522L2972.91,562.959C2972.91,562.275 2972.8,561.795 2972.59,561.519C2972.38,561.242 2971.96,561.022 2971.34,560.859L2971.34,560.078L2997.78,560.078C2998.47,560.078 2998.95,559.974 2999.22,559.766C2999.5,559.557 2999.72,559.141 2999.88,558.516L3000.66,558.516L3000.66,564.814L2999.88,564.814C2999.74,564.203 2999.52,563.789 2999.24,563.574C2998.95,563.359 2998.47,563.252 2997.78,563.252L2976.74,563.252L2976.74,574.678L2990.53,574.678C2991.22,574.678 2991.7,574.572 2991.99,574.36C2992.27,574.149 2992.49,573.734 2992.63,573.115L2993.41,573.115L2993.41,579.414L2992.63,579.414C2992.49,578.796 2992.27,578.381 2991.99,578.169C2991.7,577.957 2991.22,577.852 2990.53,577.852L2976.74,577.852Z" style="fill:rgb(64,255,239);fill-rule:nonzero;"/>
                        <path d="M3012.38,564.302L3012.38,590.522C3012.38,591.19 3012.49,591.666 3012.7,591.951C3012.91,592.236 3013.33,592.459 3013.95,592.622L3013.95,593.403L3007.33,593.403L3007.33,592.622C3007.96,592.459 3008.38,592.24 3008.59,591.963C3008.79,591.686 3008.89,591.206 3008.89,590.522L3008.89,562.959C3008.89,562.275 3008.79,561.791 3008.57,561.506C3008.36,561.222 3007.95,561.006 3007.33,560.859L3007.33,560.078L3016.9,560.078L3016.9,560.859C3016.14,561.12 3015.76,561.486 3015.76,561.958C3015.76,562.284 3016.14,562.894 3016.9,563.789L3036.99,587.275L3036.99,562.959C3036.99,562.275 3036.89,561.791 3036.68,561.506C3036.46,561.222 3036.05,561.006 3035.43,560.859L3035.43,560.078L3042.05,560.078L3042.05,560.859C3041.43,561.006 3041.01,561.222 3040.8,561.506C3040.59,561.791 3040.48,562.275 3040.48,562.959L3040.48,590.522C3040.48,591.206 3040.59,591.686 3040.8,591.963C3041.01,592.24 3041.43,592.459 3042.05,592.622L3042.05,593.403L3034.35,593.403L3034.35,592.622C3035.1,592.427 3035.48,592.093 3035.48,591.621C3035.48,591.263 3035.13,590.677 3034.45,589.863L3012.38,564.302Z" style="fill:rgb(64,255,239);fill-rule:nonzero;"/>
                        <path d="M3064.19,563.252L3064.19,590.522C3064.19,591.19 3064.3,591.666 3064.51,591.951C3064.72,592.236 3065.13,592.459 3065.75,592.622L3065.75,593.403L3058.79,593.403L3058.79,592.622C3059.41,592.459 3059.83,592.24 3060.04,591.963C3060.25,591.686 3060.36,591.206 3060.36,590.522L3060.36,563.252L3049.08,563.252C3048.39,563.252 3047.91,563.355 3047.62,563.562C3047.34,563.769 3047.12,564.186 3046.98,564.814L3046.2,564.814L3046.2,558.516L3046.98,558.516C3047.12,559.141 3047.34,559.557 3047.62,559.766C3047.91,559.974 3048.39,560.078 3049.08,560.078L3075.47,560.078C3076.15,560.078 3076.64,559.974 3076.92,559.766C3077.21,559.557 3077.42,559.141 3077.57,558.516L3078.35,558.516L3078.35,564.814L3077.57,564.814C3077.42,564.186 3077.21,563.769 3076.92,563.562C3076.64,563.355 3076.15,563.252 3075.47,563.252L3064.19,563.252Z" style="fill:rgb(64,255,239);fill-rule:nonzero;"/>
                        <path d="M3100.64,559.492C3106.51,559.492 3111.25,561.03 3114.85,564.106C3116.87,565.815 3118.38,567.907 3119.39,570.381C3120.22,572.415 3120.64,574.605 3120.64,576.948C3120.64,580.122 3119.73,583.092 3117.93,585.859C3115.94,588.919 3113.18,591.125 3109.65,592.476C3107.01,593.485 3104.03,593.989 3100.69,593.989C3094.85,593.989 3090.13,592.451 3086.55,589.375C3084.55,587.65 3083.04,585.558 3082.01,583.101C3081.18,581.082 3080.77,578.958 3080.77,576.729C3080.77,573.425 3081.66,570.381 3083.45,567.598C3085.41,564.587 3088.17,562.389 3091.75,561.006C3094.26,560.046 3097.22,559.541 3100.64,559.492ZM3100.64,562.837C3095.64,562.837 3091.69,564.237 3088.77,567.036C3086.11,569.608 3084.77,572.839 3084.77,576.729C3084.77,580.635 3086.11,583.874 3088.77,586.445C3091.67,589.245 3095.64,590.645 3100.69,590.645C3105.75,590.645 3109.74,589.245 3112.65,586.445C3115.3,583.874 3116.63,580.7 3116.63,576.924C3116.63,572.839 3115.3,569.543 3112.65,567.036C3111.06,565.539 3109.35,564.489 3107.52,563.887C3105.51,563.203 3103.21,562.853 3100.64,562.837Z" style="fill:rgb(64,255,239);fill-rule:nonzero;"/>
                        <path d="M3132.52,578.413L3132.52,590.526C3132.52,591.192 3132.63,591.668 3132.84,591.952C3133.05,592.236 3133.47,592.46 3134.09,592.622L3134.09,593.403L3127.13,593.403L3127.13,592.622C3127.75,592.459 3128.16,592.24 3128.37,591.963C3128.59,591.686 3128.69,591.206 3128.69,590.522L3128.69,562.959C3128.69,562.275 3128.59,561.791 3128.37,561.506C3128.16,561.222 3127.75,561.006 3127.13,560.859L3127.13,560.078L3145.41,560.078C3147.92,560.078 3149.9,560.213 3151.36,560.482C3152.82,560.75 3154.08,561.219 3155.16,561.887C3156.26,562.572 3157.16,563.509 3157.84,564.699C3158.62,566.051 3159.01,567.575 3159.01,569.27C3159.01,571.813 3158.17,573.887 3156.49,575.492C3154.8,577.097 3152.49,578.014 3149.54,578.242L3158.01,591.403C3158.52,592.216 3159.25,592.622 3160.21,592.622L3160.21,593.403L3152.5,593.403L3152.5,592.622C3153.29,592.492 3153.69,592.265 3153.69,591.94C3153.69,591.777 3153.41,591.249 3152.84,590.355L3145.27,578.413L3132.52,578.413ZM3132.52,575.239L3146.03,575.239C3147.87,575.239 3149.25,575.162 3150.19,575.007C3151.12,574.853 3151.95,574.572 3152.67,574.165C3154.34,573.189 3155.18,571.553 3155.18,569.258C3155.18,566.947 3154.32,565.303 3152.59,564.326C3151.83,563.903 3150.98,563.618 3150.04,563.472C3149.11,563.325 3147.65,563.252 3145.68,563.252L3132.52,563.252L3132.52,575.239Z" style="fill:rgb(64,255,239);fill-rule:nonzero;"/>
                        <path d="M3179.77,578.645L3179.77,590.521C3179.77,591.188 3179.87,591.665 3180.08,591.95C3180.3,592.235 3180.71,592.459 3181.33,592.622L3181.33,593.403L3174.37,593.403L3174.37,592.622C3174.99,592.459 3175.4,592.239 3175.62,591.962C3175.83,591.686 3175.93,591.205 3175.93,590.521L3175.93,578.645L3165.17,564.543C3163.99,563.014 3163.18,562.047 3162.74,561.64C3162.29,561.234 3161.73,560.973 3161.07,560.859L3161.07,560.078L3169.53,560.078L3169.53,560.859C3168.76,561.054 3168.38,561.372 3168.38,561.811C3168.38,562.348 3168.76,563.137 3169.53,564.177L3177.98,575.699L3186.42,563.787C3187.14,562.779 3187.49,562.096 3187.49,561.738C3187.49,561.331 3187.14,561.038 3186.42,560.859L3186.42,560.078L3194.29,560.078L3194.29,560.859C3193.49,561.006 3192.81,561.364 3192.24,561.933C3191.07,563.169 3190.31,564.039 3189.97,564.543L3179.77,578.645Z" style="fill:rgb(64,255,239);fill-rule:nonzero;"/>
                    </g>
                </g>
            </g>
        </g>
    </g>
</svg>
