<?xml version="1.0" encoding="UTF-8" standalone="no"?>
<!DOCTYPE svg PUBLIC "-//W3C//DTD SVG 1.1//EN" "http://www.w3.org/Graphics/SVG/1.1/DTD/svg11.dtd">
<svg width="100%" height="100%" viewBox="0 0 382 68" version="1.1" xmlns="http://www.w3.org/2000/svg" xmlns:xlink="http://www.w3.org/1999/xlink" xml:space="preserve" xmlns:serif="http://www.serif.com/" style="fill-rule:evenodd;clip-rule:evenodd;stroke-linejoin:round;stroke-miterlimit:2;">
    <g transform="matrix(1,0,0,1,-3969.79,-12629.3)">
        <g id="loadingE" transform="matrix(0.19863,0,0,0.0627746,3187.18,12629.3)">
            <rect x="3940" y="0" width="1920" height="1080" style="fill:none;"/>
            <clipPath id="_clip1">
                <rect x="3940" y="0" width="1920" height="1080"/>
            </clipPath>
            <g clip-path="url(#_clip1)">
                <g transform="matrix(5.03449,0,0,15.93,-23151.4,-14571.9)">
                    <g transform="matrix(1,2.44929e-16,-2.44929e-16,1,3631.53,821.525)">
                        <path d="M2097.12,93.22L2063.22,127.119L2097.12,161.017L2131.02,127.119L2097.12,93.22Z" style="fill:rgb(64,255,239);"/>
                    </g>
                    <g transform="matrix(1,0,0,1,-25042.4,498.98)">
                        <g>
                            <path d="M30428.9,462.664L30450.2,462.664C30450.9,462.664 30451.4,462.558 30451.7,462.347C30451.9,462.135 30452.2,461.72 30452.3,461.102L30453.1,461.102L30453.1,467.4L30452.3,467.4C30452.2,466.782 30451.9,466.367 30451.7,466.155C30451.4,465.944 30450.9,465.838 30450.2,465.838L30423.5,465.838L30423.5,465.057C30424.2,464.894 30424.6,464.674 30424.8,464.397C30425,464.121 30425.1,463.641 30425.1,462.957L30425.1,435.394C30425.1,434.71 30425,434.23 30424.8,433.953C30424.6,433.676 30424.1,433.457 30423.5,433.294L30423.5,432.513L30430.5,432.513L30430.5,433.294C30429.9,433.457 30429.4,433.676 30429.2,433.953C30429,434.23 30428.9,434.71 30428.9,435.394L30428.9,462.664Z" style="fill:rgb(64,255,239);fill-rule:nonzero;"/>
                            <path d="M30475,431.927C30480.9,431.927 30485.6,433.465 30489.2,436.541C30491.2,438.25 30492.7,440.341 30493.7,442.815C30494.6,444.85 30495,447.039 30495,449.383C30495,452.557 30494.1,455.527 30492.3,458.294C30490.3,461.354 30487.5,463.559 30484,464.91C30481.4,465.919 30478.4,466.424 30475,466.424C30469.2,466.424 30464.5,464.886 30460.9,461.81C30458.9,460.084 30457.4,457.993 30456.4,455.535C30455.5,453.517 30455.1,451.393 30455.1,449.163C30455.1,445.859 30456,442.815 30457.8,440.032C30459.8,437.021 30462.5,434.824 30466.1,433.44C30468.6,432.48 30471.6,431.976 30475,431.927ZM30475,435.271C30470,435.271 30466,436.671 30463.1,439.471C30460.5,442.042 30459.1,445.273 30459.1,449.163C30459.1,453.069 30460.5,456.308 30463.1,458.88C30466,461.679 30470,463.079 30475,463.079C30480.1,463.079 30484.1,461.679 30487,458.88C30489.7,456.308 30491,453.134 30491,449.358C30491,445.273 30489.7,441.977 30487,439.471C30485.4,437.973 30483.7,436.924 30481.9,436.321C30479.9,435.638 30477.6,435.288 30475,435.271Z" style="fill:rgb(64,255,239);fill-rule:nonzero;"/>
                            <path d="M30523.1,456.487L30505.2,456.487L30502.3,462.811C30502,463.413 30501.9,463.836 30501.9,464.08C30501.9,464.568 30502.4,464.894 30503.3,465.057L30503.3,465.838L30495.9,465.838L30495.9,465.057C30496.6,464.943 30497.1,464.699 30497.4,464.324C30497.8,463.95 30498.2,463.136 30498.8,461.883L30511,435.54C30511.3,434.905 30511.5,434.474 30511.5,434.246C30511.5,433.823 30511.1,433.506 30510.3,433.294L30510.3,432.513L30518.4,432.513L30518.4,433.294C30517.6,433.554 30517.2,433.896 30517.2,434.319C30517.2,434.498 30517.3,434.905 30517.6,435.54L30529.3,460.931C30530.2,462.802 30530.7,463.901 30531,464.227C30531.3,464.552 30531.9,464.829 30532.8,465.057L30532.8,465.838L30524.9,465.838L30524.9,465.057C30525.9,464.926 30526.3,464.568 30526.3,463.982C30526.3,463.722 30526.2,463.217 30525.8,462.469L30523.1,456.487ZM30521.7,453.313L30514.2,436.847L30506.7,453.313L30521.7,453.313Z" style="fill:rgb(64,255,239);fill-rule:nonzero;"/>
                            <path d="M30537.9,463.299L30537.9,435.052C30537.9,434.563 30537.7,434.189 30537.5,433.929C30537.3,433.668 30536.9,433.457 30536.3,433.294L30536.3,432.513L30553.9,432.513C30557.9,432.513 30560.9,433.066 30563,434.173C30565.7,435.556 30567.7,437.688 30569.1,440.569C30570.4,443.092 30571,445.957 30571,449.163C30571,452.955 30570.1,456.227 30568.5,458.978C30567,461.419 30565.1,463.173 30562.9,464.239C30560.6,465.305 30557.6,465.838 30553.9,465.838L30536.3,465.838L30536.3,465.057C30536.9,464.894 30537.3,464.682 30537.5,464.422C30537.7,464.161 30537.9,463.787 30537.9,463.299ZM30541.7,462.664L30553.7,462.664C30557.3,462.664 30559.9,462.119 30561.6,461.028C30563.6,459.726 30565.1,457.732 30566,455.047C30566.6,453.257 30567,451.295 30567,449.163C30567,445.289 30566,442.083 30564,439.544C30562.9,438.144 30561.6,437.151 30560,436.565C30558.5,435.979 30556.4,435.687 30553.7,435.687L30541.7,435.687L30541.7,462.664Z" style="fill:rgb(64,255,239);fill-rule:nonzero;"/>
                            <path d="M30579,462.957L30579,435.394C30579,434.71 30578.9,434.226 30578.7,433.941C30578.5,433.656 30578.1,433.44 30577.5,433.294L30577.5,432.513L30584.4,432.513L30584.4,433.294C30583.8,433.457 30583.4,433.676 30583.2,433.953C30583,434.23 30582.9,434.71 30582.9,435.394L30582.9,462.957C30582.9,463.641 30583,464.121 30583.2,464.397C30583.4,464.674 30583.8,464.894 30584.4,465.057L30584.4,465.838L30577.5,465.838L30577.5,465.057C30578.1,464.894 30578.5,464.674 30578.7,464.397C30578.9,464.121 30579,463.641 30579,462.957Z" style="fill:rgb(64,255,239);fill-rule:nonzero;"/>
                            <path d="M30596.8,436.736L30596.8,462.957C30596.8,463.624 30596.9,464.1 30597.1,464.385C30597.3,464.67 30597.8,464.894 30598.4,465.057L30598.4,465.838L30591.8,465.838L30591.8,465.057C30592.4,464.894 30592.8,464.674 30593,464.397C30593.2,464.121 30593.3,463.641 30593.3,462.957L30593.3,435.394C30593.3,434.71 30593.2,434.226 30593,433.941C30592.8,433.656 30592.4,433.44 30591.8,433.294L30591.8,432.513L30601.3,432.513L30601.3,433.294C30600.6,433.554 30600.2,433.921 30600.2,434.393C30600.2,434.718 30600.6,435.328 30601.3,436.224L30621.4,459.71L30621.4,435.394C30621.4,434.71 30621.3,434.226 30621.1,433.941C30620.9,433.656 30620.5,433.44 30619.9,433.294L30619.9,432.513L30626.5,432.513L30626.5,433.294C30625.9,433.44 30625.4,433.656 30625.2,433.941C30625,434.226 30624.9,434.71 30624.9,435.394L30624.9,462.957C30624.9,463.641 30625,464.121 30625.2,464.397C30625.4,464.674 30625.9,464.894 30626.5,465.057L30626.5,465.838L30618.8,465.838L30618.8,465.057C30619.5,464.861 30619.9,464.528 30619.9,464.056C30619.9,463.698 30619.6,463.112 30618.9,462.298L30596.8,436.736Z" style="fill:rgb(64,255,239);fill-rule:nonzero;"/>
                            <path d="M30668.8,435.711L30665,441.668L30664.4,441.23C30664.7,440.744 30664.8,440.379 30664.8,440.136C30664.8,439.633 30664,438.92 30662.2,437.996C30658.9,436.18 30655.5,435.271 30651.9,435.271C30647.9,435.271 30644.4,436.418 30641.6,438.711C30638.4,441.313 30636.8,444.825 30636.8,449.249C30636.8,453.558 30638.3,456.989 30641.4,459.542C30644.2,461.9 30647.8,463.079 30652.2,463.079C30654.5,463.079 30656.7,462.717 30658.8,461.993C30660.9,461.268 30662.6,460.255 30664.1,458.953L30664.1,452.801L30656.2,452.801C30655.5,452.801 30655,452.907 30654.7,453.118C30654.5,453.33 30654.2,453.745 30654.1,454.363L30653.3,454.363L30653.3,448.064L30654.1,448.064C30654.2,448.683 30654.5,449.098 30654.7,449.31C30655,449.521 30655.5,449.627 30656.2,449.627L30669.3,449.627L30669.3,450.408C30668.7,450.571 30668.3,450.791 30668.1,451.067C30667.8,451.344 30667.7,451.824 30667.7,452.508L30667.7,456.829C30667.7,457.513 30667.8,457.993 30668.1,458.27C30668.3,458.546 30668.7,458.766 30669.3,458.929L30669.3,459.612C30667.5,461.256 30665.7,462.534 30664.1,463.445C30660.6,465.431 30656.5,466.424 30652,466.424C30646.5,466.424 30641.9,464.918 30638.5,461.907C30636.8,460.426 30635.5,458.652 30634.5,456.585C30633.4,454.225 30632.8,451.735 30632.8,449.114C30632.8,445.354 30633.9,442.018 30636.1,439.104C30638.1,436.419 30640.9,434.458 30644.3,433.221C30646.7,432.358 30649.3,431.927 30652.1,431.927C30654.6,431.927 30656.8,432.22 30658.9,432.806C30661,433.392 30663.2,434.36 30665.6,435.711C30666.3,436.102 30666.8,436.297 30666.9,436.297C30667.2,436.297 30667.6,435.955 30668.1,435.271L30668.8,435.711Z" style="fill:rgb(64,255,239);fill-rule:nonzero;"/>
                        </g>
                    </g>
                </g>
            </g>
        </g>
    </g>
</svg>
