<?xml version="1.0" encoding="UTF-8" standalone="no"?>
<!DOCTYPE svg PUBLIC "-//W3C//DTD SVG 1.1//EN" "http://www.w3.org/Graphics/SVG/1.1/DTD/svg11.dtd">
<svg width="100%" height="100%" viewBox="0 0 568 750" version="1.1" xmlns="http://www.w3.org/2000/svg" xmlns:xlink="http://www.w3.org/1999/xlink" xml:space="preserve" xmlns:serif="http://www.serif.com/" style="fill-rule:evenodd;clip-rule:evenodd;stroke-linejoin:round;stroke-miterlimit:2;">
    <g transform="matrix(1,0,0,1,-617.797,-13944.7)">
        <g id="pagesE" transform="matrix(0.295727,0,0,0.693974,-547.369,13944.7)">
            <rect x="3940" y="0" width="1920" height="1080" style="fill:none;"/>
            <clipPath id="_clip1">
                <rect x="3940" y="0" width="1920" height="1080"/>
            </clipPath>
            <g clip-path="url(#_clip1)">
                <g>
                    <g transform="matrix(1.02019,0,0,1.20191,-12157.6,-109.031)">
                        <rect x="15891.4" y="131.356" width="1657.29" height="817.288" style="fill:url(#_Radial2);"/>
                    </g>
                    <g>
                        <g transform="matrix(3.38149,0,0,1.44098,-44977,-503.976)">
                            <g>
                                <g transform="matrix(1,0,0,1,12402.9,256.525)">
                                    <g>
                                        <path d="M2097.12,93.22L2063.22,127.119L2097.12,161.017L2131.02,127.119L2097.12,93.22Z" style="fill:rgb(64,255,239);"/>
                                    </g>
                                </g>
                                <g transform="matrix(4.68917,0,0,1,-53493,156.356)">
                                    <rect x="14500" y="225.788" width="33.898" height="3" style="fill:rgb(64,255,239);"/>
                                </g>
                            </g>
                        </g>
                        <g transform="matrix(3.38149,0,0,1.44098,-1346.02,847.978)">
                            <g>
                                <g>
                                    <path d="M2097.12,93.22L2063.22,127.119L2097.12,161.017L2131.02,127.119L2097.12,93.22Z" style="fill:rgb(64,255,239);"/>
                                </g>
                            </g>
                        </g>
                        <g transform="matrix(3.38149,0,0,1.44098,-56512.4,-47.0748)">
                            <g>
                                <path d="M18094.6,67.905L18094.6,77.846C18094.6,78.25 18094.7,78.556 18094.9,78.764C18095.1,78.973 18095.4,79.142 18095.9,79.272L18095.9,79.897L18090.3,79.897L18090.3,79.272C18090.8,79.142 18091.1,78.973 18091.3,78.764C18091.5,78.556 18091.5,78.25 18091.5,77.846L18091.5,55.268C18091.5,54.878 18091.5,54.578 18091.3,54.37C18091.1,54.161 18090.8,53.992 18090.3,53.862L18090.3,53.237L18104.3,53.237C18106.3,53.237 18107.8,53.341 18108.9,53.549C18110,53.758 18111,54.135 18111.8,54.682C18112.7,55.229 18113.5,55.978 18114,56.928C18114.6,57.996 18114.9,59.194 18114.9,60.522C18114.9,62.345 18114.4,63.907 18113.2,65.21C18112.4,66.212 18111.3,66.912 18110,67.309C18108.7,67.706 18106.8,67.905 18104.3,67.905L18094.6,67.905ZM18094.6,65.366L18104.6,65.366C18106.1,65.366 18107.2,65.307 18107.9,65.19C18108.6,65.073 18109.3,64.845 18109.9,64.506C18111.2,63.725 18111.9,62.417 18111.9,60.581C18111.9,58.732 18111.2,57.417 18109.9,56.635C18109.3,56.297 18108.6,56.069 18107.9,55.952C18107.2,55.835 18106.1,55.776 18104.6,55.776L18094.6,55.776L18094.6,65.366Z" style="fill:rgb(64,255,239);fill-rule:nonzero;"/>
                                <path d="M18135.6,72.417L18121.3,72.417L18119,77.475C18118.7,77.957 18118.6,78.296 18118.6,78.491C18118.6,78.881 18119,79.142 18119.8,79.272L18119.8,79.897L18113.8,79.897L18113.8,79.272C18114.4,79.181 18114.8,78.986 18115.1,78.686C18115.3,78.387 18115.7,77.736 18116.2,76.733L18125.9,55.659C18126.2,55.151 18126.3,54.806 18126.3,54.624C18126.3,54.285 18126,54.031 18125.3,53.862L18125.3,53.237L18131.8,53.237L18131.8,53.862C18131.2,54.07 18130.8,54.344 18130.8,54.682C18130.8,54.825 18131,55.151 18131.2,55.659L18140.5,75.971C18141.2,77.469 18141.7,78.348 18141.9,78.608C18142.1,78.868 18142.6,79.09 18143.4,79.272L18143.4,79.897L18137,79.897L18137,79.272C18137.8,79.168 18138.2,78.881 18138.2,78.413C18138.2,78.204 18138,77.801 18137.7,77.202L18135.6,72.417ZM18134.4,69.878L18128.4,56.704L18122.4,69.878L18134.4,69.878Z" style="fill:rgb(64,255,239);fill-rule:nonzero;"/>
                                <path d="M18172.7,55.796L18169.7,60.561L18169.2,60.211C18169.5,59.822 18169.6,59.53 18169.6,59.335C18169.6,58.933 18168.9,58.363 18167.5,57.623C18164.8,56.17 18162.1,55.444 18159.3,55.444C18156,55.444 18153.2,56.361 18151,58.195C18148.4,60.277 18147.2,63.087 18147.2,66.626C18147.2,70.073 18148.4,72.818 18150.8,74.86C18153.1,76.747 18156,77.69 18159.5,77.69C18161.3,77.69 18163.1,77.4 18164.7,76.821C18166.4,76.241 18167.8,75.431 18169,74.389L18169,69.467L18162.7,69.467C18162.1,69.467 18161.7,69.552 18161.5,69.721C18161.3,69.891 18161.1,70.223 18161,70.717L18160.4,70.717L18160.4,65.678L18161,65.678C18161.1,66.173 18161.3,66.505 18161.5,66.674C18161.7,66.844 18162.1,66.928 18162.7,66.928L18173.1,66.928L18173.1,67.553C18172.7,67.684 18172.3,67.859 18172.2,68.081C18172,68.302 18171.9,68.686 18171.9,69.233L18171.9,72.69C18171.9,73.237 18172,73.621 18172.2,73.842C18172.3,74.064 18172.7,74.24 18173.1,74.37L18173.1,74.917C18171.7,76.232 18170.3,77.254 18169,77.983C18166.2,79.572 18162.9,80.366 18159.3,80.366C18154.9,80.366 18151.3,79.161 18148.5,76.753C18147.2,75.568 18146.1,74.148 18145.3,72.495C18144.4,70.607 18143.9,68.615 18143.9,66.518C18143.9,63.51 18144.8,60.841 18146.6,58.51C18148.2,56.362 18150.4,54.793 18153.1,53.803C18155.1,53.113 18157.2,52.768 18159.4,52.768C18161.4,52.768 18163.2,53.003 18164.8,53.471C18166.5,53.94 18168.3,54.715 18170.2,55.796C18170.8,56.108 18171.1,56.264 18171.3,56.264C18171.5,56.264 18171.8,55.991 18172.2,55.444L18172.7,55.796Z" style="fill:rgb(64,255,239);fill-rule:nonzero;"/>
                                <path d="M18182.5,67.456L18182.5,77.358L18199.6,77.358C18200.2,77.358 18200.5,77.273 18200.8,77.104C18201,76.935 18201.2,76.603 18201.3,76.108L18201.9,76.108L18201.9,81.147L18201.3,81.147C18201.2,80.652 18201,80.32 18200.8,80.151C18200.5,79.982 18200.1,79.897 18199.6,79.897L18178.2,79.897L18178.2,79.272C18178.7,79.142 18179,78.966 18179.2,78.745C18179.4,78.523 18179.5,78.139 18179.5,77.592L18179.5,55.542C18179.5,54.995 18179.4,54.611 18179.2,54.389C18179,54.168 18178.7,53.992 18178.2,53.862L18178.2,53.237L18199.4,53.237C18199.9,53.237 18200.3,53.154 18200.5,52.987C18200.7,52.82 18200.9,52.487 18201,51.987L18201.7,51.987L18201.7,57.026L18201,57.026C18200.9,56.536 18200.7,56.206 18200.5,56.034C18200.3,55.862 18199.9,55.776 18199.4,55.776L18182.5,55.776L18182.5,64.917L18193.6,64.917C18194.1,64.917 18194.5,64.832 18194.7,64.663C18194.9,64.493 18195.1,64.161 18195.2,63.667L18195.9,63.667L18195.9,68.706L18195.2,68.706C18195.1,68.211 18194.9,67.879 18194.7,67.71C18194.5,67.54 18194.1,67.456 18193.6,67.456L18182.5,67.456Z" style="fill:rgb(64,255,239);fill-rule:nonzero;"/>
                                <path d="M18232,54.893L18229.2,59.936L18228.7,59.643C18228.9,59.057 18229,58.693 18229,58.549C18229,58.159 18228.5,57.736 18227.6,57.28C18224.9,56.056 18222.2,55.444 18219.2,55.444C18216.8,55.444 18214.7,55.892 18213,56.789C18212.1,57.231 18211.4,57.802 18210.9,58.504C18210.4,59.206 18210.2,59.946 18210.2,60.726C18210.2,61.376 18210.4,61.989 18210.7,62.568C18211.1,63.146 18211.7,63.578 18212.3,63.864C18213,64.189 18213.8,64.413 18214.8,64.536C18215.7,64.66 18217.3,64.754 18219.5,64.819C18222.5,64.91 18224.6,65.05 18225.9,65.239C18227.2,65.428 18228.2,65.756 18229.1,66.225C18231.3,67.462 18232.4,69.344 18232.4,71.87C18232.4,74.279 18231.4,76.251 18229.4,77.788C18227.2,79.506 18224.1,80.366 18220.2,80.366C18217.9,80.366 18216,80.138 18214.3,79.682C18212.6,79.226 18210.6,78.387 18208.3,77.163C18207.6,76.863 18207.2,76.713 18207.1,76.713C18206.9,76.713 18206.6,76.948 18206.2,77.417L18205.7,77.085L18208.6,72.182L18209.1,72.495C18208.9,73.016 18208.8,73.367 18208.8,73.549C18208.8,73.966 18209.6,74.611 18211.3,75.483C18212.8,76.264 18214.2,76.827 18215.6,77.172C18217,77.518 18218.5,77.69 18220.1,77.69C18223.4,77.69 18225.9,76.967 18227.6,75.522C18228.8,74.559 18229.3,73.413 18229.3,72.085C18229.3,70.34 18228.3,69.135 18226.4,68.471C18225.8,68.25 18225.1,68.11 18224.5,68.051C18223.8,67.993 18221.9,67.905 18218.8,67.788C18216.5,67.697 18214.8,67.527 18213.5,67.28C18212.2,67.032 18211.1,66.629 18210.1,66.069C18209.2,65.548 18208.4,64.819 18207.9,63.881C18207.4,62.944 18207.1,61.922 18207.1,60.815C18207.1,58.927 18207.8,57.306 18209.2,55.952C18210.2,54.962 18211.7,54.184 18213.5,53.618C18215.4,53.051 18217.4,52.768 18219.6,52.768C18221.3,52.768 18223,52.945 18224.5,53.299C18226.1,53.653 18227.8,54.263 18229.7,55.129C18230.1,55.313 18230.4,55.405 18230.5,55.405C18230.7,55.405 18231.1,55.142 18231.5,54.618L18232,54.893Z" style="fill:rgb(64,255,239);fill-rule:nonzero;"/>
                            </g>
                        </g>
                    </g>
                </g>
            </g>
        </g>
    </g>
    <defs>
        <radialGradient id="_Radial2" cx="0" cy="0" r="1" gradientUnits="userSpaceOnUse" gradientTransform="matrix(1.38356e-13,-817.288,3080.62,6.82301e-14,17548.6,948.644)"><stop offset="0" style="stop-color:rgb(64,255,239);stop-opacity:0.5"/><stop offset="1" style="stop-color:rgb(64,255,239);stop-opacity:0"/></radialGradient>
    </defs>
</svg>
