<?xml version="1.0" encoding="UTF-8" standalone="no"?>
<!DOCTYPE svg PUBLIC "-//W3C//DTD SVG 1.1//EN" "http://www.w3.org/Graphics/SVG/1.1/DTD/svg11.dtd">
<svg width="100%" height="100%" viewBox="0 0 568 68" version="1.1" xmlns="http://www.w3.org/2000/svg" xmlns:xlink="http://www.w3.org/1999/xlink" xml:space="preserve" xmlns:serif="http://www.serif.com/" style="fill-rule:evenodd;clip-rule:evenodd;stroke-linejoin:round;stroke-miterlimit:2;">
    <g transform="matrix(1,0,0,1,-3351.99,-10033.8)">
        <g id="creditsD" transform="matrix(1,0,0,1,2419.53,7738.22)">
            <rect x="932.458" y="2295.6" width="567.797" height="67.797" style="fill:none;"/>
            <clipPath id="_clip1">
                <rect x="932.458" y="2295.6" width="567.797" height="67.797"/>
            </clipPath>
            <g clip-path="url(#_clip1)">
                <g transform="matrix(1,0,0,1,-1019.37,-4318.63)">
                    <g transform="matrix(1,0,0,1,-111.39,6521.01)">
                        <g>
                            <g>
                                <path d="M2097.12,93.22L2063.22,127.119L2097.12,161.017L2131.02,127.119L2097.12,93.22Z" style="fill:rgb(255,168,104);"/>
                            </g>
                        </g>
                    </g>
                    <g transform="matrix(1,0,0,1,388.61,6521.01)">
                        <g>
                            <g>
                                <path d="M2097.12,93.22L2063.22,127.119L2097.12,161.017L2131.02,127.119L2097.12,93.22Z" style="fill:rgb(255,168,104);"/>
                            </g>
                        </g>
                    </g>
                    <g transform="matrix(1,0,0,1,-19773.3,6546.7)">
                        <g>
                            <path d="M21942.6,90.404L21939.7,95.228L21939.1,94.916C21939.3,94.525 21939.3,94.219 21939.3,93.998C21939.3,93.464 21938.5,92.793 21936.8,91.986C21934.5,90.866 21932,90.306 21929.3,90.306C21925.7,90.306 21922.7,91.315 21920.5,93.331C21918.1,95.386 21917,98.047 21917,101.312C21917,104.565 21918.2,107.264 21920.6,109.411C21922.9,111.505 21925.8,112.553 21929.2,112.553C21932.5,112.553 21935.4,111.586 21938,109.652C21939.1,108.78 21939.7,108.161 21939.7,107.797C21939.7,107.614 21939.6,107.315 21939.3,106.898L21939.8,106.527L21943.3,110.746L21942.8,111.137C21942.4,110.811 21942.1,110.648 21941.9,110.648C21941.8,110.648 21941.5,110.785 21941.2,111.059C21940,111.959 21939,112.635 21938.2,113.085C21937.4,113.535 21936.5,113.917 21935.6,114.23C21933.6,114.896 21931.5,115.228 21929.2,115.228C21924.7,115.228 21921,113.978 21918.2,111.478C21915.3,108.861 21913.8,105.521 21913.8,101.459C21913.8,98.256 21914.7,95.482 21916.6,93.138C21919.5,89.467 21923.8,87.631 21929.6,87.631C21933.4,87.631 21937.1,88.64 21940.6,90.658C21940.9,90.788 21941,90.853 21941.1,90.853C21941.3,90.853 21941.6,90.606 21942,90.111L21942.6,90.404Z" style="fill:rgb(255,168,104);fill-rule:nonzero;"/>
                            <path d="M21952.7,102.767L21952.7,112.458C21952.7,112.991 21952.7,113.371 21952.9,113.598C21953.1,113.826 21953.4,114.005 21953.9,114.135L21953.9,114.76L21948.3,114.76L21948.3,114.135C21948.8,114.004 21949.2,113.829 21949.3,113.607C21949.5,113.386 21949.6,113.002 21949.6,112.455L21949.6,90.404C21949.6,89.857 21949.5,89.47 21949.3,89.242C21949.2,89.014 21948.8,88.842 21948.3,88.724L21948.3,88.099L21963,88.099C21965,88.099 21966.6,88.207 21967.7,88.422C21968.9,88.637 21969.9,89.012 21970.8,89.547C21971.6,90.094 21972.4,90.844 21972.9,91.796C21973.5,92.878 21973.8,94.097 21973.8,95.453C21973.8,97.487 21973.2,99.146 21971.8,100.43C21970.5,101.715 21968.6,102.448 21966.3,102.631L21973,113.16C21973.5,113.81 21974,114.135 21974.8,114.135L21974.8,114.76L21968.6,114.76L21968.6,114.135C21969.3,114.031 21969.6,113.849 21969.6,113.589C21969.6,113.459 21969.4,113.036 21968.9,112.321L21962.9,102.767L21952.7,102.767ZM21952.7,100.228L21963.5,100.228C21964.9,100.228 21966,100.166 21966.8,100.043C21967.5,99.919 21968.2,99.694 21968.8,99.369C21970.1,98.588 21970.8,97.279 21970.8,95.443C21970.8,93.594 21970.1,92.279 21968.7,91.498C21968.1,91.159 21967.4,90.931 21966.7,90.814C21965.9,90.697 21964.8,90.638 21963.2,90.638L21952.7,90.638L21952.7,100.228Z" style="fill:rgb(255,168,104);fill-rule:nonzero;"/>
                            <path d="M21983.4,102.318L21983.4,112.221L22000.5,112.221C22001,112.221 22001.4,112.136 22001.7,111.967C22001.9,111.797 22002.1,111.465 22002.2,110.971L22002.8,110.971L22002.8,116.01L22002.2,116.01C22002,115.515 22001.9,115.183 22001.6,115.013C22001.4,114.844 22001,114.76 22000.5,114.76L21979.1,114.76L21979.1,114.135C21979.6,114.004 21979.9,113.829 21980.1,113.607C21980.3,113.386 21980.3,113.002 21980.3,112.455L21980.3,90.404C21980.3,89.857 21980.2,89.473 21980.1,89.252C21979.9,89.03 21979.6,88.855 21979.1,88.724L21979.1,88.099L22000.2,88.099C22000.8,88.099 22001.2,88.016 22001.4,87.849C22001.6,87.683 22001.8,87.349 22001.9,86.849L22002.5,86.849L22002.5,91.888L22001.9,91.888C22001.8,91.399 22001.6,91.068 22001.4,90.896C22001.2,90.724 22000.8,90.638 22000.2,90.638L21983.4,90.638L21983.4,99.779L21994.4,99.779C21995,99.779 21995.4,99.694 21995.6,99.525C21995.8,99.356 21996,99.024 21996.1,98.529L21996.7,98.529L21996.7,103.568L21996.1,103.568C21996,103.073 21995.8,102.741 21995.6,102.572C21995.4,102.403 21995,102.318 21994.4,102.318L21983.4,102.318Z" style="fill:rgb(255,168,104);fill-rule:nonzero;"/>
                            <path d="M22009.1,112.728L22009.1,90.131C22009.1,89.74 22009,89.441 22008.8,89.232C22008.7,89.024 22008.3,88.855 22007.9,88.724L22007.9,88.099L22021.9,88.099C22025.1,88.099 22027.6,88.542 22029.3,89.428C22031.4,90.534 22033,92.24 22034.1,94.545C22035.1,96.563 22035.6,98.855 22035.6,101.42C22035.6,104.454 22034.9,107.071 22033.6,109.271C22032.4,111.224 22030.9,112.627 22029.1,113.48C22027.3,114.333 22024.9,114.76 22021.9,114.76L22007.9,114.76L22007.9,114.135C22008.3,114.004 22008.7,113.835 22008.8,113.627C22009,113.418 22009.1,113.119 22009.1,112.728ZM22012.2,112.221L22021.8,112.221C22024.6,112.221 22026.7,111.784 22028.1,110.912C22029.7,109.87 22030.9,108.275 22031.7,106.127C22032.2,104.694 22032.4,103.125 22032.4,101.42C22032.4,98.321 22031.6,95.756 22030,93.724C22029.2,92.605 22028.1,91.81 22026.9,91.342C22025.6,90.873 22023.9,90.638 22021.8,90.638L22012.2,90.638L22012.2,112.221Z" style="fill:rgb(255,168,104);fill-rule:nonzero;"/>
                            <path d="M22042.1,112.455L22042.1,90.404C22042.1,89.857 22042,89.47 22041.8,89.242C22041.6,89.014 22041.3,88.842 22040.8,88.724L22040.8,88.099L22046.4,88.099L22046.4,88.724C22045.9,88.855 22045.5,89.03 22045.4,89.252C22045.2,89.473 22045.1,89.857 22045.1,90.404L22045.1,112.455C22045.1,113.002 22045.2,113.386 22045.4,113.607C22045.5,113.829 22045.9,114.004 22046.4,114.135L22046.4,114.76L22040.8,114.76L22040.8,114.135C22041.3,114.004 22041.6,113.829 22041.8,113.607C22042,113.386 22042.1,113.002 22042.1,112.455Z" style="fill:rgb(255,168,104);fill-rule:nonzero;"/>
                            <path d="M22064.1,90.638L22064.1,112.455C22064.1,112.989 22064.2,113.37 22064.4,113.597C22064.5,113.825 22064.9,114.004 22065.4,114.135L22065.4,114.76L22059.8,114.76L22059.8,114.135C22060.3,114.004 22060.6,113.829 22060.8,113.607C22061,113.386 22061,113.002 22061,112.455L22061,90.638L22052,90.638C22051.5,90.638 22051.1,90.721 22050.9,90.886C22050.6,91.052 22050.5,91.386 22050.3,91.888L22049.7,91.888L22049.7,86.849L22050.3,86.849C22050.5,87.349 22050.6,87.683 22050.9,87.849C22051.1,88.016 22051.5,88.099 22052,88.099L22073.1,88.099C22073.7,88.099 22074.1,88.016 22074.3,87.849C22074.5,87.683 22074.7,87.349 22074.8,86.849L22075.4,86.849L22075.4,91.888L22074.8,91.888C22074.7,91.386 22074.5,91.052 22074.3,90.886C22074.1,90.721 22073.7,90.638 22073.1,90.638L22064.1,90.638Z" style="fill:rgb(255,168,104);fill-rule:nonzero;"/>
                            <path d="M22103.9,89.756L22101.1,94.799L22100.6,94.506C22100.8,93.92 22100.9,93.555 22100.9,93.412C22100.9,93.021 22100.4,92.598 22099.5,92.142C22096.8,90.918 22094.1,90.306 22091.1,90.306C22088.7,90.306 22086.6,90.755 22084.8,91.651C22084,92.093 22083.3,92.665 22082.8,93.366C22082.3,94.068 22082.1,94.809 22082.1,95.588C22082.1,96.238 22082.2,96.852 22082.6,97.43C22083,98.008 22083.5,98.44 22084.2,98.727C22084.9,99.051 22085.7,99.275 22086.7,99.399C22087.6,99.522 22089.2,99.617 22091.3,99.681C22094.3,99.773 22096.5,99.913 22097.8,100.101C22099.1,100.29 22100.1,100.619 22101,101.088C22103.2,102.325 22104.3,104.206 22104.3,106.732C22104.3,109.141 22103.3,111.114 22101.3,112.65C22099,114.369 22096,115.228 22092.1,115.228C22089.8,115.228 22087.9,115 22086.2,114.545C22084.5,114.089 22082.5,113.249 22080.2,112.025C22079.5,111.726 22079.1,111.576 22079,111.576C22078.8,111.576 22078.5,111.81 22078.1,112.279L22077.6,111.947L22080.5,107.045L22081,107.357C22080.8,107.878 22080.7,108.23 22080.7,108.412C22080.7,108.829 22081.5,109.473 22083.2,110.346C22084.7,111.127 22086.1,111.69 22087.5,112.035C22088.9,112.38 22090.4,112.553 22092,112.553C22095.3,112.553 22097.8,111.83 22099.5,110.385C22100.6,109.421 22101.2,108.275 22101.2,106.947C22101.2,105.202 22100.2,103.998 22098.3,103.334C22097.7,103.112 22097,102.972 22096.4,102.914C22095.7,102.855 22093.8,102.767 22090.6,102.65C22088.4,102.559 22086.7,102.39 22085.4,102.142C22084.1,101.895 22083,101.491 22082,100.931C22081.1,100.411 22080.3,99.681 22079.8,98.744C22079.3,97.806 22079,96.784 22079,95.678C22079,93.79 22079.7,92.168 22081.1,90.814C22082.1,89.825 22083.6,89.047 22085.4,88.48C22087.2,87.914 22089.3,87.631 22091.4,87.631C22093.2,87.631 22094.9,87.808 22096.4,88.162C22097.9,88.516 22099.7,89.126 22101.6,89.991C22102,90.175 22102.3,90.267 22102.4,90.267C22102.6,90.267 22103,90.005 22103.4,89.48L22103.9,89.756Z" style="fill:rgb(255,168,104);fill-rule:nonzero;"/>
                        </g>
                    </g>
                </g>
            </g>
        </g>
    </g>
</svg>
