<?xml version="1.0" encoding="UTF-8" standalone="no"?>
<!DOCTYPE svg PUBLIC "-//W3C//DTD SVG 1.1//EN" "http://www.w3.org/Graphics/SVG/1.1/DTD/svg11.dtd">
<svg width="100%" height="100%" viewBox="0 0 68 68" version="1.1" xmlns="http://www.w3.org/2000/svg" xmlns:xlink="http://www.w3.org/1999/xlink" xml:space="preserve" xmlns:serif="http://www.serif.com/" style="fill-rule:evenodd;clip-rule:evenodd;stroke-linejoin:round;stroke-miterlimit:2;">
    <g transform="matrix(1,0,0,1,-1929.23,-9082.13)">
        <g id="fireD" transform="matrix(0.14791,0,0,0.14791,2266.14,9095.84)">
            <rect x="-2277.78" y="-92.74" width="458.365" height="458.365" style="fill:none;"/>
            <clipPath id="_clip1">
                <rect x="-2277.78" y="-92.74" width="458.365" height="458.365"/>
            </clipPath>
            <g clip-path="url(#_clip1)">
                <g transform="matrix(6.76088,0,0,6.76088,-31626.4,-1728.01)">
                    <g transform="matrix(1,0,0,1,2277.73,148.652)">
                        <path d="M2097.12,93.22L2063.22,127.119L2097.12,161.017L2131.02,127.119L2097.12,93.22ZM2097.12,105.932L2075.93,127.119L2097.12,148.305L2118.3,127.119L2097.12,105.932Z" style="fill:rgb(255,168,104);"/>
                    </g>
                    <g transform="matrix(0.0847458,0,0,0.0847458,4349.42,250.347)">
                        <path d="M300,200L200,300L300,400L400,300L300,200Z" style="fill:rgb(255,168,104);"/>
                    </g>
                </g>
            </g>
        </g>
    </g>
</svg>
