<?xml version="1.0" encoding="UTF-8" standalone="no"?>
<!DOCTYPE svg PUBLIC "-//W3C//DTD SVG 1.1//EN" "http://www.w3.org/Graphics/SVG/1.1/DTD/svg11.dtd">
<svg width="100%" height="100%" viewBox="0 0 433 68" version="1.1" xmlns="http://www.w3.org/2000/svg" xmlns:xlink="http://www.w3.org/1999/xlink" xml:space="preserve" xmlns:serif="http://www.serif.com/" style="fill-rule:evenodd;clip-rule:evenodd;stroke-linejoin:round;stroke-miterlimit:2;">
    <g transform="matrix(1,0,0,1,-2228.39,-9680.43)">
        <g id="newgameD" transform="matrix(0.225435,0,0,0.0627746,1340.17,9680.43)">
            <rect x="3940" y="0" width="1920" height="1080" style="fill:none;"/>
            <clipPath id="_clip1">
                <rect x="3940" y="0" width="1920" height="1080"/>
            </clipPath>
            <g clip-path="url(#_clip1)">
                <g transform="matrix(4.43588,0,0,15.93,-14120,-6559.65)">
                    <g transform="matrix(1,0,0,1,2008.14,318.559)">
                        <g>
                            <g>
                                <path d="M2097.12,93.22L2063.22,127.119L2097.12,161.017L2131.02,127.119L2097.12,93.22Z" style="fill:rgb(255,168,104);"/>
                            </g>
                        </g>
                    </g>
                    <g transform="matrix(1,0,0,1,-24352.4,173.303)">
                        <path d="M28564.5,259.936L28564.5,286.157C28564.5,286.824 28564.6,287.3 28564.8,287.585C28565,287.87 28565.4,288.094 28566,288.256L28566,289.038L28559.4,289.038L28559.4,288.256C28560,288.094 28560.5,287.874 28560.7,287.597C28560.9,287.321 28561,286.84 28561,286.157L28561,258.593C28561,257.91 28560.9,257.426 28560.6,257.141C28560.4,256.856 28560,256.64 28559.4,256.494L28559.4,255.713L28569,255.713L28569,256.494C28568.2,256.754 28567.8,257.12 28567.8,257.592C28567.8,257.918 28568.2,258.528 28569,259.423L28589.1,282.91L28589.1,258.593C28589.1,257.91 28589,257.426 28588.7,257.141C28588.5,256.856 28588.1,256.64 28587.5,256.494L28587.5,255.713L28594.1,255.713L28594.1,256.494C28593.5,256.64 28593.1,256.856 28592.9,257.141C28592.7,257.426 28592.6,257.91 28592.6,258.593L28592.6,286.157C28592.6,286.84 28592.7,287.321 28592.9,287.597C28593.1,287.874 28593.5,288.094 28594.1,288.256L28594.1,289.038L28586.4,289.038L28586.4,288.256C28587.2,288.061 28587.5,287.727 28587.5,287.255C28587.5,286.897 28587.2,286.311 28586.5,285.498L28564.5,259.936Z" style="fill:rgb(255,168,104);fill-rule:nonzero;"/>
                        <path d="M28606.8,273.486L28606.8,285.864L28628.2,285.864C28628.9,285.864 28629.4,285.758 28629.6,285.547C28629.9,285.335 28630.1,284.92 28630.3,284.301L28631.1,284.301L28631.1,290.6L28630.3,290.6C28630.1,289.982 28629.9,289.567 28629.6,289.355C28629.3,289.144 28628.9,289.038 28628.2,289.038L28601.4,289.038L28601.4,288.256C28602.1,288.094 28602.5,287.874 28602.7,287.597C28602.9,287.321 28603,286.84 28603,286.157L28603,258.593C28603,257.91 28602.9,257.43 28602.7,257.153C28602.5,256.876 28602.1,256.657 28601.4,256.494L28601.4,255.713L28627.9,255.713C28628.6,255.713 28629,255.608 28629.3,255.4C28629.6,255.192 28629.8,254.775 28630,254.15L28630.8,254.15L28630.8,260.449L28630,260.449C28629.8,259.837 28629.6,259.424 28629.3,259.209C28629,258.994 28628.6,258.886 28627.9,258.886L28606.8,258.886L28606.8,270.312L28620.6,270.312C28621.3,270.312 28621.8,270.206 28622.1,269.995C28622.4,269.783 28622.6,269.368 28622.7,268.75L28623.5,268.75L28623.5,275.048L28622.7,275.048C28622.6,274.43 28622.4,274.015 28622.1,273.803C28621.8,273.592 28621.3,273.486 28620.6,273.486L28606.8,273.486Z" style="fill:rgb(255,168,104);fill-rule:nonzero;"/>
                        <path d="M28660.4,260.699L28652,285.058C28651.6,286.019 28651.5,286.686 28651.5,287.06C28651.5,287.597 28651.9,287.996 28652.9,288.256L28652.9,289.038L28644.8,289.038L28644.8,288.256C28645.7,288.077 28646.2,287.679 28646.2,287.06C28646.2,286.718 28646,286.051 28645.6,285.058L28636.7,260.522C28636.1,258.846 28635.6,257.792 28635.3,257.36C28634.9,256.929 28634.4,256.64 28633.6,256.494L28633.6,255.713L28641.4,255.713L28641.4,256.494C28640.4,256.608 28640,257.023 28640,257.739C28640,257.999 28640.2,258.756 28640.6,260.009L28648.9,283.557L28657.1,260.009C28657.6,258.626 28657.9,257.828 28657.9,257.617C28657.9,257.031 28657.4,256.657 28656.5,256.494L28656.5,255.713L28665,255.713L28665,256.494C28664,256.722 28663.6,257.137 28663.6,257.739C28663.6,257.983 28663.8,258.74 28664.2,260.009L28672.3,283.557L28680.3,260.009C28680.7,258.838 28680.9,258.064 28680.9,257.69C28680.9,257.072 28680.4,256.673 28679.5,256.494L28679.5,255.713L28686.9,255.713L28686.9,256.494C28686.1,256.657 28685.5,256.97 28685.2,257.434C28684.8,257.898 28684.3,258.927 28683.8,260.522L28675.3,285.058C28675,286.002 28674.8,286.629 28674.8,286.938C28674.8,287.589 28675.3,288.029 28676.2,288.256L28676.2,289.038L28668.2,289.038L28668.2,288.256C28669.1,288.045 28669.6,287.597 28669.6,286.914C28669.6,286.702 28669.4,286.149 28669.1,285.254L28660.4,260.699Z" style="fill:rgb(255,168,104);fill-rule:nonzero;"/>
                        <path d="M28738,258.911L28734.3,264.868L28733.6,264.43C28733.9,263.944 28734.1,263.579 28734.1,263.335C28734.1,262.833 28733.2,262.12 28731.5,261.195C28728.1,259.379 28724.7,258.471 28721.2,258.471C28717.1,258.471 28713.6,259.618 28710.8,261.911C28707.6,264.513 28706,268.025 28706,272.448C28706,276.758 28707.6,280.189 28710.6,282.742C28713.4,285.1 28717,286.279 28721.4,286.279C28723.7,286.279 28725.9,285.917 28728,285.192C28730.1,284.468 28731.9,283.455 28733.3,282.153L28733.3,276.001L28725.4,276.001C28724.7,276.001 28724.2,276.106 28724,276.318C28723.7,276.53 28723.5,276.945 28723.3,277.563L28722.5,277.563L28722.5,271.264L28723.3,271.264C28723.5,271.883 28723.7,272.298 28724,272.509C28724.2,272.721 28724.7,272.827 28725.4,272.827L28738.5,272.827L28738.5,273.608C28737.9,273.771 28737.5,273.991 28737.3,274.267C28737.1,274.544 28737,275.024 28737,275.708L28737,280.029C28737,280.713 28737.1,281.193 28737.3,281.469C28737.5,281.746 28737.9,281.966 28738.5,282.129L28738.5,282.812C28736.7,284.456 28735,285.734 28733.3,286.645C28729.8,288.631 28725.8,289.624 28721.2,289.624C28715.7,289.624 28711.2,288.118 28707.7,285.107C28706,283.626 28704.7,281.852 28703.7,279.785C28702.6,277.425 28702,274.935 28702,272.314C28702,268.554 28703.1,265.218 28705.3,262.304C28707.4,259.619 28710.1,257.658 28713.5,256.421C28715.9,255.558 28718.6,255.127 28721.3,255.127C28723.8,255.127 28726,255.42 28728.1,256.005C28730.2,256.591 28732.5,257.56 28734.9,258.911C28735.6,259.301 28736,259.497 28736.2,259.497C28736.4,259.497 28736.8,259.155 28737.4,258.471L28738,258.911Z" style="fill:rgb(255,168,104);fill-rule:nonzero;"/>
                        <path d="M28767.9,279.687L28750.1,279.687L28747.1,286.01C28746.8,286.613 28746.7,287.036 28746.7,287.28C28746.7,287.768 28747.2,288.094 28748.2,288.256L28748.2,289.038L28740.7,289.038L28740.7,288.256C28741.4,288.143 28741.9,287.898 28742.2,287.524C28742.6,287.15 28743.1,286.336 28743.6,285.083L28755.8,258.74C28756.1,258.105 28756.3,257.674 28756.3,257.446C28756.3,257.023 28755.9,256.705 28755.1,256.494L28755.1,255.713L28763.2,255.713L28763.2,256.494C28762.4,256.754 28762,257.096 28762,257.519C28762,257.698 28762.1,258.105 28762.4,258.74L28774.1,284.13C28775,286.002 28775.5,287.101 28775.8,287.426C28776.1,287.752 28776.7,288.029 28777.6,288.256L28777.6,289.038L28769.7,289.038L28769.7,288.256C28770.7,288.126 28771.1,287.768 28771.1,287.182C28771.1,286.922 28771,286.417 28770.6,285.669L28767.9,279.687ZM28766.5,276.513L28759,260.046L28751.5,276.513L28766.5,276.513Z" style="fill:rgb(255,168,104);fill-rule:nonzero;"/>
                        <path d="M28800.2,289.038L28786.1,261.016L28786.1,286.155C28786.1,286.823 28786.2,287.3 28786.4,287.585C28786.7,287.87 28787.1,288.094 28787.7,288.256L28787.7,289.038L28781.1,289.038L28781.1,288.256C28781.7,288.094 28782.1,287.874 28782.3,287.597C28782.6,287.321 28782.7,286.84 28782.7,286.157L28782.7,258.593C28782.7,257.91 28782.6,257.426 28782.3,257.141C28782.1,256.856 28781.7,256.64 28781.1,256.494L28781.1,255.713L28789.7,255.713L28789.7,256.494C28788.9,256.77 28788.5,257.112 28788.5,257.519C28788.5,257.714 28788.8,258.341 28789.3,259.399L28800.4,281.367L28811.6,259.204C28812,258.422 28812.2,257.869 28812.2,257.544C28812.2,257.12 28811.8,256.77 28811,256.494L28811,255.713L28819.7,255.713L28819.7,256.494C28819.1,256.657 28818.7,256.876 28818.5,257.153C28818.2,257.43 28818.1,257.91 28818.1,258.593L28818.1,286.157C28818.1,286.824 28818.2,287.3 28818.5,287.585C28818.7,287.87 28819.1,288.094 28819.7,288.256L28819.7,289.038L28812.7,289.038L28812.7,288.256C28813.4,288.094 28813.8,287.874 28814,287.597C28814.2,287.32 28814.3,286.839 28814.3,286.155L28814.3,261.016L28800.2,289.038Z" style="fill:rgb(255,168,104);fill-rule:nonzero;"/>
                        <path d="M28832.4,273.486L28832.4,285.864L28853.8,285.864C28854.4,285.864 28854.9,285.758 28855.2,285.547C28855.5,285.335 28855.7,284.92 28855.9,284.301L28856.6,284.301L28856.6,290.6L28855.9,290.6C28855.7,289.982 28855.5,289.567 28855.2,289.355C28854.9,289.144 28854.4,289.038 28853.7,289.038L28827,289.038L28827,288.256C28827.6,288.094 28828.1,287.874 28828.3,287.597C28828.5,287.321 28828.6,286.84 28828.6,286.157L28828.6,258.593C28828.6,257.91 28828.5,257.43 28828.2,257.153C28828,256.876 28827.6,256.657 28827,256.494L28827,255.713L28853.4,255.713C28854.1,255.713 28854.6,255.608 28854.9,255.4C28855.2,255.192 28855.4,254.775 28855.5,254.15L28856.3,254.15L28856.3,260.449L28855.5,260.449C28855.4,259.837 28855.2,259.424 28854.9,259.209C28854.6,258.994 28854.1,258.886 28853.4,258.886L28832.4,258.886L28832.4,270.312L28846.2,270.312C28846.9,270.312 28847.4,270.206 28847.6,269.995C28847.9,269.783 28848.1,269.368 28848.3,268.75L28849.1,268.75L28849.1,275.048L28848.3,275.048C28848.1,274.43 28847.9,274.015 28847.6,273.803C28847.4,273.592 28846.9,273.486 28846.2,273.486L28832.4,273.486Z" style="fill:rgb(255,168,104);fill-rule:nonzero;"/>
                    </g>
                </g>
            </g>
        </g>
    </g>
</svg>
