<?xml version="1.0" encoding="UTF-8" standalone="no"?>
<!DOCTYPE svg PUBLIC "-//W3C//DTD SVG 1.1//EN" "http://www.w3.org/Graphics/SVG/1.1/DTD/svg11.dtd">
<svg width="100%" height="100%" viewBox="0 0 568 68" version="1.1" xmlns="http://www.w3.org/2000/svg" xmlns:xlink="http://www.w3.org/1999/xlink" xml:space="preserve" xmlns:serif="http://www.serif.com/" style="fill-rule:evenodd;clip-rule:evenodd;stroke-linejoin:round;stroke-miterlimit:2;">
    <g transform="matrix(1,0,0,1,-2734.19,-9798.23)">
        <g id="OptionsD" transform="matrix(1,0,0,1,1801.74,7502.63)">
            <rect x="932.458" y="2295.6" width="567.797" height="67.797" style="fill:none;"/>
            <clipPath id="_clip1">
                <rect x="932.458" y="2295.6" width="567.797" height="67.797"/>
            </clipPath>
            <g clip-path="url(#_clip1)">
                <g transform="matrix(1,0,0,1,1.93268e-12,-314.358)">
                    <g>
                        <g transform="matrix(1,0,0,1,-1130.76,2516.74)">
                            <g>
                                <g>
                                    <path d="M2097.12,93.22L2063.22,127.119L2097.12,161.017L2131.02,127.119L2097.12,93.22Z" style="fill:rgb(255,168,104);"/>
                                </g>
                            </g>
                        </g>
                        <g transform="matrix(3.10866,0,0,1,-44109.3,2416.57)">
                            <rect x="14500" y="225.788" width="33.898" height="3" style="fill:rgb(255,168,104);"/>
                        </g>
                    </g>
                    <g>
                        <g transform="matrix(1,0,0,1,-630.763,2516.74)">
                            <g>
                                <g>
                                    <path d="M2097.12,93.22L2063.22,127.119L2097.12,161.017L2131.02,127.119L2097.12,93.22Z" style="fill:rgb(255,168,104);"/>
                                </g>
                            </g>
                        </g>
                        <g transform="matrix(3.10866,0,0,1,-43714.6,2416.57)">
                            <rect x="14500" y="225.788" width="33.898" height="3" style="fill:rgb(255,168,104);"/>
                        </g>
                    </g>
                    <g transform="matrix(1,0,0,1,-13543,2482.07)">
                        <g>
                            <path d="M14654.6,145.026C14660.5,145.026 14665.2,146.564 14668.8,149.641C14670.8,151.35 14672.3,153.441 14673.3,155.915C14674.2,157.949 14674.6,160.139 14674.6,162.482C14674.6,165.656 14673.7,168.627 14671.9,171.393C14669.9,174.453 14667.1,176.659 14663.6,178.01C14661,179.019 14658,179.523 14654.6,179.523C14648.8,179.523 14644.1,177.985 14640.5,174.909C14638.5,173.184 14637,171.092 14636,168.635C14635.1,166.616 14634.7,164.492 14634.7,162.263C14634.7,158.959 14635.6,155.915 14637.4,153.132C14639.3,150.121 14642.1,147.923 14645.7,146.54C14648.2,145.58 14651.2,145.075 14654.6,145.026ZM14654.6,148.371C14649.6,148.371 14645.6,149.771 14642.7,152.57C14640,155.142 14638.7,158.373 14638.7,162.263C14638.7,166.169 14640,169.408 14642.7,171.979C14645.6,174.779 14649.6,176.179 14654.6,176.179C14659.7,176.179 14663.7,174.779 14666.6,171.979C14669.2,169.408 14670.6,166.234 14670.6,162.458C14670.6,158.373 14669.2,155.077 14666.6,152.57C14665,151.073 14663.3,150.023 14661.5,149.421C14659.4,148.737 14657.2,148.387 14654.6,148.371Z" style="fill:rgb(255,168,104);fill-rule:nonzero;"/>
                            <path d="M14686.5,163.947L14686.5,176.374C14686.5,176.878 14686.6,177.261 14686.8,177.521C14687,177.782 14687.4,177.993 14688,178.156L14688,178.937L14681.1,178.937L14681.1,178.156C14681.7,177.993 14682.1,177.782 14682.3,177.521C14682.5,177.261 14682.6,176.878 14682.6,176.374L14682.6,148.151C14682.6,147.663 14682.5,147.289 14682.3,147.028C14682.1,146.768 14681.7,146.556 14681.1,146.393L14681.1,145.612L14698.6,145.612C14701.1,145.612 14703,145.742 14704.3,146.003C14705.7,146.263 14706.9,146.735 14708,147.419C14709.1,148.102 14710,149.038 14710.7,150.226C14711.5,151.561 14711.9,153.059 14711.9,154.719C14711.9,156.997 14711.2,158.95 14709.8,160.578C14708.7,161.831 14707.3,162.706 14705.7,163.203C14704,163.699 14701.7,163.947 14698.6,163.947L14686.5,163.947ZM14686.5,160.773L14699,160.773C14700.8,160.773 14702.2,160.7 14703.1,160.554C14704,160.407 14704.8,160.122 14705.5,159.699C14707.2,158.723 14708,157.087 14708,154.792C14708,152.481 14707.2,150.837 14705.5,149.86C14704.8,149.437 14704,149.152 14703.1,149.006C14702.2,148.859 14700.8,148.786 14699,148.786L14686.5,148.786L14686.5,160.773Z" style="fill:rgb(255,168,104);fill-rule:nonzero;"/>
                            <path d="M14732,148.786L14732,176.057C14732,176.724 14732.1,177.2 14732.3,177.485C14732.5,177.77 14732.9,177.993 14733.6,178.156L14733.6,178.937L14726.6,178.937L14726.6,178.156C14727.2,177.993 14727.6,177.774 14727.8,177.497C14728.1,177.22 14728.2,176.74 14728.2,176.057L14728.2,148.786L14716.9,148.786C14716.2,148.786 14715.7,148.889 14715.4,149.096C14715.1,149.303 14714.9,149.72 14714.8,150.349L14714,150.349L14714,144.05L14714.8,144.05C14714.9,144.675 14715.1,145.092 14715.4,145.3C14715.7,145.508 14716.2,145.612 14716.9,145.612L14743.3,145.612C14744,145.612 14744.4,145.508 14744.7,145.3C14745,145.092 14745.2,144.675 14745.4,144.05L14746.2,144.05L14746.2,150.349L14745.4,150.349C14745.2,149.72 14745,149.303 14744.7,149.096C14744.4,148.889 14744,148.786 14743.3,148.786L14732,148.786Z" style="fill:rgb(255,168,104);fill-rule:nonzero;"/>
                            <path d="M14751.9,176.057L14751.9,148.493C14751.9,147.809 14751.8,147.325 14751.6,147.04C14751.4,146.756 14751,146.54 14750.3,146.393L14750.3,145.612L14757.3,145.612L14757.3,146.393C14756.7,146.556 14756.3,146.776 14756,147.053C14755.8,147.329 14755.7,147.809 14755.7,148.493L14755.7,176.057C14755.7,176.74 14755.8,177.22 14756,177.497C14756.2,177.774 14756.7,177.993 14757.3,178.156L14757.3,178.937L14750.3,178.937L14750.3,178.156C14751,177.993 14751.4,177.774 14751.6,177.497C14751.8,177.22 14751.9,176.74 14751.9,176.057Z" style="fill:rgb(255,168,104);fill-rule:nonzero;"/>
                            <path d="M14783.7,145.026C14789.6,145.026 14794.3,146.564 14797.9,149.641C14799.9,151.35 14801.4,153.441 14802.4,155.915C14803.3,157.949 14803.7,160.139 14803.7,162.482C14803.7,165.656 14802.8,168.627 14801,171.393C14799,174.453 14796.2,176.659 14792.7,178.01C14790.1,179.019 14787.1,179.523 14783.7,179.523C14777.9,179.523 14773.2,177.985 14769.6,174.909C14767.6,173.184 14766.1,171.092 14765.1,168.635C14764.2,166.616 14763.8,164.492 14763.8,162.263C14763.8,158.959 14764.7,155.915 14766.5,153.132C14768.4,150.121 14771.2,147.923 14774.8,146.54C14777.3,145.58 14780.3,145.075 14783.7,145.026ZM14783.7,148.371C14778.7,148.371 14774.7,149.771 14771.8,152.57C14769.1,155.142 14767.8,158.373 14767.8,162.263C14767.8,166.169 14769.1,169.408 14771.8,171.979C14774.7,174.779 14778.7,176.179 14783.7,176.179C14788.8,176.179 14792.8,174.779 14795.7,171.979C14798.3,169.408 14799.7,166.234 14799.7,162.458C14799.7,158.373 14798.3,155.077 14795.7,152.57C14794.1,151.073 14792.4,150.023 14790.6,149.421C14788.5,148.737 14786.3,148.387 14783.7,148.371Z" style="fill:rgb(255,168,104);fill-rule:nonzero;"/>
                            <path d="M14815.2,149.836L14815.2,176.057C14815.2,176.724 14815.3,177.2 14815.5,177.485C14815.8,177.77 14816.2,177.993 14816.8,178.156L14816.8,178.937L14810.2,178.937L14810.2,178.156C14810.8,177.993 14811.2,177.774 14811.4,177.497C14811.6,177.22 14811.7,176.74 14811.7,176.057L14811.7,148.493C14811.7,147.809 14811.6,147.325 14811.4,147.04C14811.2,146.756 14810.8,146.54 14810.2,146.393L14810.2,145.612L14819.7,145.612L14819.7,146.393C14819,146.654 14818.6,147.02 14818.6,147.492C14818.6,147.818 14819,148.428 14819.7,149.323L14839.8,172.809L14839.8,148.493C14839.8,147.809 14839.7,147.325 14839.5,147.04C14839.3,146.756 14838.9,146.54 14838.3,146.393L14838.3,145.612L14844.9,145.612L14844.9,146.393C14844.3,146.54 14843.9,146.756 14843.6,147.04C14843.4,147.325 14843.3,147.809 14843.3,148.493L14843.3,176.057C14843.3,176.74 14843.4,177.22 14843.6,177.497C14843.9,177.774 14844.3,177.993 14844.9,178.156L14844.9,178.937L14837.2,178.937L14837.2,178.156C14837.9,177.961 14838.3,177.627 14838.3,177.155C14838.3,176.797 14838,176.211 14837.3,175.397L14815.2,149.836Z" style="fill:rgb(255,168,104);fill-rule:nonzero;"/>
                            <path d="M14883.5,147.682L14880,153.986L14879.3,153.62C14879.6,152.888 14879.7,152.432 14879.7,152.253C14879.7,151.765 14879.1,151.236 14877.9,150.666C14874.6,149.136 14871.2,148.371 14867.5,148.371C14864.5,148.371 14861.9,148.931 14859.7,150.052C14858.6,150.604 14857.7,151.319 14857.1,152.196C14856.5,153.073 14856.2,153.999 14856.2,154.973C14856.2,155.786 14856.4,156.553 14856.9,157.276C14857.4,157.998 14858,158.539 14858.8,158.896C14859.7,159.302 14860.7,159.582 14861.9,159.737C14863.1,159.891 14865.1,160.009 14867.8,160.09C14871.5,160.204 14874.2,160.379 14875.8,160.615C14877.4,160.851 14878.8,161.262 14879.8,161.848C14882.6,163.394 14884,165.746 14884,168.903C14884,171.914 14882.7,174.38 14880.2,176.301C14877.4,178.449 14873.6,179.523 14868.7,179.523C14865.9,179.523 14863.4,179.239 14861.3,178.669C14859.2,178.099 14856.7,177.049 14853.8,175.519C14853,175.145 14852.5,174.958 14852.4,174.958C14852.1,174.958 14851.7,175.251 14851.2,175.837L14850.6,175.422L14854.2,169.294L14854.9,169.684C14854.6,170.336 14854.4,170.775 14854.4,171.003C14854.4,171.524 14855.5,172.329 14857.6,173.42C14859.4,174.396 14861.2,175.1 14863,175.532C14864.7,175.963 14866.6,176.179 14868.6,176.179C14872.7,176.179 14875.9,175.275 14878,173.469C14879.4,172.264 14880.1,170.832 14880.1,169.172C14880.1,166.991 14878.9,165.485 14876.5,164.655C14875.7,164.378 14874.9,164.204 14874.1,164.13C14873.2,164.057 14870.8,163.947 14866.9,163.801C14864.1,163.687 14861.9,163.475 14860.3,163.166C14858.7,162.857 14857.3,162.352 14856.1,161.652C14854.9,161.001 14854,160.09 14853.3,158.918C14852.7,157.746 14852.3,156.468 14852.3,155.085C14852.3,152.725 14853.2,150.698 14855,149.006C14856.3,147.769 14858.1,146.796 14860.4,146.088C14862.7,145.38 14865.2,145.026 14867.9,145.026C14870.1,145.026 14872.2,145.248 14874.1,145.69C14876,146.133 14878.2,146.895 14880.6,147.977C14881.1,148.207 14881.5,148.322 14881.6,148.322C14881.9,148.322 14882.3,147.994 14882.8,147.338L14883.5,147.682Z" style="fill:rgb(255,168,104);fill-rule:nonzero;"/>
                        </g>
                    </g>
                </g>
            </g>
        </g>
    </g>
</svg>
