<?xml version="1.0" encoding="UTF-8" standalone="no"?>
<!DOCTYPE svg PUBLIC "-//W3C//DTD SVG 1.1//EN" "http://www.w3.org/Graphics/SVG/1.1/DTD/svg11.dtd">
<svg width="100%" height="100%" viewBox="0 0 282 282" version="1.1" xmlns="http://www.w3.org/2000/svg" xmlns:xlink="http://www.w3.org/1999/xlink" xml:space="preserve" xmlns:serif="http://www.serif.com/" style="fill-rule:evenodd;clip-rule:evenodd;stroke-linejoin:round;stroke-miterlimit:2;">
    <g transform="matrix(1,0,0,1,-660.093,-9680.43)">
        <g id="wheelD" transform="matrix(0.14676,0,0,0.260907,81.8572,9680.43)">
            <rect x="3940" y="0" width="1920" height="1080" style="fill:none;"/>
            <clipPath id="_clip1">
                <rect x="3940" y="0" width="1920" height="1080"/>
            </clipPath>
            <g clip-path="url(#_clip1)">
                <g transform="matrix(6.81383,0,0,3.83278,-33621.6,-2807.68)">
                    <g transform="matrix(0.847458,0,0,0.847458,5408.73,703.941)">
                        <path d="M200,122.5L122.5,200L200,277.5L277.5,200L200,122.5ZM200,145L145,200L200,255L255,200L200,145Z" style="fill:rgb(255,168,104);"/>
                    </g>
                    <g transform="matrix(0.847458,0,0,0.847458,5483.94,628.729)">
                        <path d="M200,122.5L122.5,200L200,277.5L277.5,200L200,122.5ZM200,145L145,200L200,255L255,200L200,145Z" style="fill:rgb(255,168,104);"/>
                    </g>
                    <g transform="matrix(0.847458,0,0,0.847458,5483.94,779.153)">
                        <path d="M200,122.5L122.5,200L200,277.5L277.5,200L200,122.5ZM200,145L145,200L200,255L255,200L200,145Z" style="fill:rgb(255,168,104);"/>
                    </g>
                    <g transform="matrix(0.847458,0,0,0.847458,5559.15,703.941)">
                        <path d="M200,122.5L122.5,200L200,277.5L277.5,200L200,122.5ZM200,145L145,200L200,255L255,200L200,145Z" style="fill:rgb(255,168,104);"/>
                    </g>
                </g>
            </g>
        </g>
    </g>
</svg>
