<?xml version="1.0" encoding="UTF-8" standalone="no"?>
<!DOCTYPE svg PUBLIC "-//W3C//DTD SVG 1.1//EN" "http://www.w3.org/Graphics/SVG/1.1/DTD/svg11.dtd">
<svg width="100%" height="100%" viewBox="0 0 456 68" version="1.1" xmlns="http://www.w3.org/2000/svg" xmlns:xlink="http://www.w3.org/1999/xlink" xml:space="preserve" xmlns:serif="http://www.serif.com/" style="fill-rule:evenodd;clip-rule:evenodd;stroke-linejoin:round;stroke-miterlimit:2;">
    <g transform="matrix(1,0,0,1,-2228.39,-951.695)">
        <g id="loadgameA" transform="matrix(0.2374,0,0,0.0627746,1293.03,951.695)">
            <rect x="3940" y="0" width="1920" height="1080" style="fill:none;"/>
            <clipPath id="_clip1">
                <rect x="3940" y="0" width="1920" height="1080"/>
            </clipPath>
            <g clip-path="url(#_clip1)">
                <g transform="matrix(4.2123,0,0,15.93,-13209.8,-9050.4)">
                    <g transform="matrix(1,0,0,1,2008.14,474.915)">
                        <g>
                            <g>
                                <path d="M2097.12,93.22L2063.22,127.119L2097.12,161.017L2131.02,127.119L2097.12,93.22Z" style="fill:rgb(221,191,255);"/>
                            </g>
                        </g>
                    </g>
                    <g transform="matrix(1,0,0,1,-24341,329.659)">
                        <path d="M28553.3,285.864L28574.6,285.864C28575.3,285.864 28575.8,285.758 28576,285.547C28576.3,285.335 28576.5,284.92 28576.7,284.301L28577.5,284.301L28577.5,290.6L28576.7,290.6C28576.5,289.982 28576.3,289.567 28576,289.355C28575.8,289.144 28575.3,289.038 28574.6,289.038L28547.9,289.038L28547.9,288.256C28548.5,288.094 28549,287.874 28549.2,287.597C28549.4,287.321 28549.5,286.84 28549.5,286.157L28549.5,258.593C28549.5,257.91 28549.4,257.43 28549.2,257.153C28548.9,256.876 28548.5,256.657 28547.9,256.494L28547.9,255.713L28554.9,255.713L28554.9,256.494C28554.2,256.657 28553.8,256.876 28553.6,257.153C28553.4,257.43 28553.3,257.91 28553.3,258.593L28553.3,285.864Z" style="fill:rgb(221,191,255);fill-rule:nonzero;"/>
                        <path d="M28599.4,255.127C28605.2,255.127 28610,256.665 28613.6,259.741C28615.6,261.45 28617.1,263.541 28618.1,266.015C28619,268.05 28619.4,270.239 28619.4,272.583C28619.4,275.756 28618.5,278.727 28616.7,281.494C28614.7,284.554 28611.9,286.759 28608.4,288.11C28605.7,289.119 28602.8,289.624 28599.4,289.624C28593.6,289.624 28588.9,288.086 28585.3,285.009C28583.3,283.284 28581.8,281.193 28580.7,278.735C28579.9,276.717 28579.5,274.593 28579.5,272.363C28579.5,269.059 28580.4,266.015 28582.2,263.232C28584.1,260.221 28586.9,258.024 28590.5,256.64C28593,255.68 28596,255.175 28599.4,255.127ZM28599.4,258.471C28594.4,258.471 28590.4,259.871 28587.5,262.671C28584.8,265.242 28583.5,268.473 28583.5,272.363C28583.5,276.269 28584.8,279.508 28587.5,282.08C28590.4,284.879 28594.4,286.279 28599.4,286.279C28604.5,286.279 28608.5,284.879 28611.4,282.08C28614,279.508 28615.4,276.334 28615.4,272.558C28615.4,268.473 28614,265.177 28611.4,262.671C28609.8,261.173 28608.1,260.123 28606.3,259.521C28604.2,258.838 28601.9,258.488 28599.4,258.471Z" style="fill:rgb(221,191,255);fill-rule:nonzero;"/>
                        <path d="M28647.5,279.687L28629.6,279.687L28626.7,286.01C28626.4,286.613 28626.3,287.036 28626.3,287.28C28626.3,287.768 28626.8,288.094 28627.7,288.256L28627.7,289.038L28620.3,289.038L28620.3,288.256C28621,288.143 28621.5,287.898 28621.8,287.524C28622.2,287.15 28622.6,286.336 28623.2,285.083L28635.4,258.74C28635.7,258.105 28635.8,257.674 28635.8,257.446C28635.8,257.023 28635.5,256.705 28634.7,256.494L28634.7,255.713L28642.8,255.713L28642.8,256.494C28642,256.754 28641.6,257.096 28641.6,257.519C28641.6,257.698 28641.7,258.105 28642,258.74L28653.7,284.13C28654.6,286.002 28655.1,287.101 28655.4,287.426C28655.7,287.752 28656.3,288.029 28657.2,288.256L28657.2,289.038L28649.3,289.038L28649.3,288.256C28650.2,288.126 28650.7,287.768 28650.7,287.182C28650.7,286.922 28650.5,286.417 28650.2,285.669L28647.5,279.687ZM28646,276.513L28638.5,260.046L28631,276.513L28646,276.513Z" style="fill:rgb(221,191,255);fill-rule:nonzero;"/>
                        <path d="M28662.2,286.499L28662.2,258.252C28662.2,257.763 28662.1,257.389 28661.9,257.129C28661.7,256.868 28661.3,256.657 28660.7,256.494L28660.7,255.713L28678.3,255.713C28682.2,255.713 28685.3,256.266 28687.4,257.373C28690.1,258.756 28692.1,260.888 28693.5,263.769C28694.7,266.292 28695.3,269.157 28695.3,272.363C28695.3,276.155 28694.5,279.427 28692.9,282.177C28691.4,284.619 28689.5,286.373 28687.3,287.439C28685,288.505 28682,289.038 28678.3,289.038L28660.7,289.038L28660.7,288.256C28661.3,288.094 28661.7,287.882 28661.9,287.622C28662.1,287.361 28662.2,286.987 28662.2,286.499ZM28666.1,285.864L28678.1,285.864C28681.6,285.864 28684.3,285.319 28686,284.228C28688,282.926 28689.5,280.932 28690.4,278.247C28691,276.456 28691.3,274.495 28691.3,272.363C28691.3,268.489 28690.4,265.283 28688.4,262.744C28687.3,261.344 28686,260.351 28684.4,259.765C28682.8,259.179 28680.7,258.886 28678.1,258.886L28666.1,258.886L28666.1,285.864Z" style="fill:rgb(221,191,255);fill-rule:nonzero;"/>
                        <path d="M28749.5,258.911L28745.7,264.868L28745.1,264.43C28745.4,263.944 28745.6,263.579 28745.6,263.335C28745.6,262.833 28744.7,262.12 28742.9,261.195C28739.6,259.379 28736.2,258.471 28732.6,258.471C28728.6,258.471 28725.1,259.618 28722.3,261.911C28719.1,264.513 28717.5,268.025 28717.5,272.448C28717.5,276.758 28719,280.189 28722.1,282.742C28724.9,285.1 28728.5,286.279 28732.9,286.279C28735.2,286.279 28737.4,285.917 28739.5,285.192C28741.6,284.468 28743.4,283.455 28744.8,282.153L28744.8,276.001L28736.9,276.001C28736.2,276.001 28735.7,276.106 28735.4,276.318C28735.2,276.53 28734.9,276.945 28734.8,277.563L28734,277.563L28734,271.264L28734.8,271.264C28734.9,271.883 28735.2,272.298 28735.4,272.509C28735.7,272.721 28736.2,272.827 28736.9,272.827L28750,272.827L28750,273.608C28749.4,273.771 28749,273.991 28748.8,274.267C28748.6,274.544 28748.4,275.024 28748.4,275.708L28748.4,280.029C28748.4,280.713 28748.6,281.193 28748.8,281.469C28749,281.746 28749.4,281.966 28750,282.129L28750,282.812C28748.2,284.456 28746.4,285.734 28744.8,286.645C28741.3,288.631 28737.2,289.624 28732.7,289.624C28727.2,289.624 28722.7,288.118 28719.2,285.107C28717.5,283.626 28716.2,281.852 28715.2,279.785C28714.1,277.425 28713.5,274.935 28713.5,272.314C28713.5,268.554 28714.6,265.218 28716.8,262.304C28718.8,259.619 28721.6,257.658 28725,256.421C28727.4,255.558 28730,255.127 28732.8,255.127C28735.3,255.127 28737.5,255.42 28739.6,256.005C28741.7,256.591 28743.9,257.56 28746.3,258.911C28747,259.301 28747.5,259.497 28747.6,259.497C28747.9,259.497 28748.3,259.155 28748.8,258.471L28749.5,258.911Z" style="fill:rgb(221,191,255);fill-rule:nonzero;"/>
                        <path d="M28779.4,279.687L28761.5,279.687L28758.6,286.01C28758.3,286.613 28758.2,287.036 28758.2,287.28C28758.2,287.768 28758.7,288.094 28759.6,288.256L28759.6,289.038L28752.2,289.038L28752.2,288.256C28752.9,288.143 28753.4,287.898 28753.7,287.524C28754.1,287.15 28754.5,286.336 28755.1,285.083L28767.3,258.74C28767.6,258.105 28767.8,257.674 28767.8,257.446C28767.8,257.023 28767.4,256.705 28766.6,256.494L28766.6,255.713L28774.7,255.713L28774.7,256.494C28773.9,256.754 28773.5,257.096 28773.5,257.519C28773.5,257.698 28773.6,258.105 28773.9,258.74L28785.6,284.13C28786.5,286.002 28787,287.101 28787.3,287.426C28787.6,287.752 28788.2,288.029 28789.1,288.256L28789.1,289.038L28781.2,289.038L28781.2,288.256C28782.2,288.126 28782.6,287.768 28782.6,287.182C28782.6,286.922 28782.5,286.417 28782.1,285.669L28779.4,279.687ZM28778,276.513L28770.5,260.046L28763,276.513L28778,276.513Z" style="fill:rgb(221,191,255);fill-rule:nonzero;"/>
                        <path d="M28811.6,289.038L28797.6,261.016L28797.6,286.155C28797.6,286.823 28797.7,287.3 28797.9,287.585C28798.1,287.87 28798.6,288.094 28799.2,288.256L28799.2,289.038L28792.6,289.038L28792.6,288.256C28793.2,288.094 28793.6,287.874 28793.8,287.597C28794,287.321 28794.2,286.84 28794.2,286.157L28794.2,258.593C28794.2,257.91 28794,257.426 28793.8,257.141C28793.6,256.856 28793.2,256.64 28792.6,256.494L28792.6,255.713L28801.2,255.713L28801.2,256.494C28800.4,256.77 28800,257.112 28800,257.519C28800,257.714 28800.3,258.341 28800.8,259.399L28811.9,281.367L28823.1,259.204C28823.5,258.422 28823.7,257.869 28823.7,257.544C28823.7,257.12 28823.3,256.77 28822.5,256.494L28822.5,255.713L28831.2,255.713L28831.2,256.494C28830.6,256.657 28830.2,256.876 28829.9,257.153C28829.7,257.43 28829.6,257.91 28829.6,258.593L28829.6,286.157C28829.6,286.824 28829.7,287.3 28829.9,287.585C28830.2,287.87 28830.6,288.094 28831.2,288.256L28831.2,289.038L28824.2,289.038L28824.2,288.256C28824.9,288.094 28825.3,287.874 28825.5,287.597C28825.7,287.32 28825.8,286.839 28825.8,286.155L28825.8,261.016L28811.6,289.038Z" style="fill:rgb(221,191,255);fill-rule:nonzero;"/>
                        <path d="M28843.9,273.486L28843.9,285.864L28865.2,285.864C28865.9,285.864 28866.4,285.758 28866.7,285.547C28867,285.335 28867.2,284.92 28867.3,284.301L28868.1,284.301L28868.1,290.6L28867.3,290.6C28867.2,289.982 28867,289.567 28866.7,289.355C28866.4,289.144 28865.9,289.038 28865.2,289.038L28838.5,289.038L28838.5,288.256C28839.1,288.094 28839.5,287.874 28839.7,287.597C28839.9,287.321 28840,286.84 28840,286.157L28840,258.593C28840,257.91 28839.9,257.43 28839.7,257.153C28839.5,256.876 28839.1,256.657 28838.5,256.494L28838.5,255.713L28864.9,255.713C28865.6,255.713 28866.1,255.608 28866.4,255.4C28866.6,255.192 28866.9,254.775 28867,254.15L28867.8,254.15L28867.8,260.449L28867,260.449C28866.9,259.837 28866.7,259.424 28866.4,259.209C28866.1,258.994 28865.6,258.886 28864.9,258.886L28843.9,258.886L28843.9,270.312L28857.7,270.312C28858.4,270.312 28858.8,270.206 28859.1,269.995C28859.4,269.783 28859.6,269.368 28859.8,268.75L28860.6,268.75L28860.6,275.048L28859.8,275.048C28859.6,274.43 28859.4,274.015 28859.1,273.803C28858.8,273.592 28858.4,273.486 28857.7,273.486L28843.9,273.486Z" style="fill:rgb(221,191,255);fill-rule:nonzero;"/>
                    </g>
                </g>
            </g>
        </g>
    </g>
</svg>
