<?xml version="1.0" encoding="UTF-8" standalone="no"?>
<!DOCTYPE svg PUBLIC "-//W3C//DTD SVG 1.1//EN" "http://www.w3.org/Graphics/SVG/1.1/DTD/svg11.dtd">
<svg width="100%" height="100%" viewBox="0 0 1726 750" version="1.1" xmlns="http://www.w3.org/2000/svg" xmlns:xlink="http://www.w3.org/1999/xlink" xml:space="preserve" xmlns:serif="http://www.serif.com/" style="fill-rule:evenodd;clip-rule:evenodd;stroke-linejoin:round;stroke-miterlimit:2;">
    <g transform="matrix(1,0,0,1,-78.3051,-1349.86)">
        <g id="mapA" transform="matrix(0.898482,0,0,0.693974,-3461.71,1349.86)">
            <rect x="3940" y="0" width="1920" height="1080" style="fill:none;"/>
            <clipPath id="_clip1">
                <rect x="3940" y="0" width="1920" height="1080"/>
            </clipPath>
            <g clip-path="url(#_clip1)">
                <g>
                    <g transform="matrix(1.11299,0,0,1.20191,-13709.2,-109.031)">
                        <rect x="15891.4" y="131.356" width="1657.29" height="817.288" style="fill:url(#_Radial2);"/>
                    </g>
                    <g transform="matrix(1.11299,0,0,1.44098,-553.645,-335.821)">
                        <g transform="matrix(1,0,0,1,1974.24,821.525)">
                            <g>
                                <path d="M2097.12,93.22L2063.22,127.119L2097.12,161.017L2131.02,127.119L2097.12,93.22Z" style="fill:rgb(221,191,255);"/>
                            </g>
                        </g>
                        <g transform="matrix(1,0,0,1,3631.53,821.525)">
                            <g>
                                <path d="M2097.12,93.22L2063.22,127.119L2097.12,161.017L2131.02,127.119L2097.12,93.22Z" style="fill:rgb(221,191,255);"/>
                            </g>
                        </g>
                        <g transform="matrix(48.89,0,0,1,-704834,721.356)">
                            <rect x="14500" y="225.788" width="33.898" height="3" style="fill:rgb(221,191,255);"/>
                        </g>
                    </g>
                    <g transform="matrix(1.11299,0,0,1.44098,-553.645,-335.821)">
                        <g transform="matrix(1,0,0,1,1974.24,139.831)">
                            <g>
                                <path d="M2097.12,93.22L2063.22,127.119L2097.12,161.017L2131.02,127.119L2097.12,93.22Z" style="fill:rgb(221,191,255);"/>
                            </g>
                        </g>
                        <g transform="matrix(1,0,0,1,3631.53,139.831)">
                            <g>
                                <path d="M2097.12,93.22L2063.22,127.119L2097.12,161.017L2131.02,127.119L2097.12,93.22Z" style="fill:rgb(221,191,255);"/>
                            </g>
                        </g>
                        <g transform="matrix(48.89,0,0,1,-704834,39.661)">
                            <rect x="14500" y="225.788" width="33.898" height="3" style="fill:rgb(221,191,255);"/>
                        </g>
                    </g>
                </g>
            </g>
        </g>
    </g>
    <defs>
        <radialGradient id="_Radial2" cx="0" cy="0" r="1" gradientUnits="userSpaceOnUse" gradientTransform="matrix(1657.29,0,0,817.288,16720,948.644)"><stop offset="0" style="stop-color:rgb(221,191,255);stop-opacity:0.5"/><stop offset="1" style="stop-color:rgb(221,191,255);stop-opacity:0"/></radialGradient>
    </defs>
</svg>
