<?xml version="1.0" encoding="UTF-8" standalone="no"?>
<!DOCTYPE svg PUBLIC "-//W3C//DTD SVG 1.1//EN" "http://www.w3.org/Graphics/SVG/1.1/DTD/svg11.dtd">
<svg width="100%" height="100%" viewBox="0 0 568 750" version="1.1" xmlns="http://www.w3.org/2000/svg" xmlns:xlink="http://www.w3.org/1999/xlink" xml:space="preserve" xmlns:serif="http://www.serif.com/" style="fill-rule:evenodd;clip-rule:evenodd;stroke-linejoin:round;stroke-miterlimit:2;">
    <g transform="matrix(1,0,0,1,-1235.59,-2149.35)">
        <g id="potionsA" transform="matrix(0.295727,0,0,0.693974,70.4273,2149.35)">
            <rect x="3940" y="0" width="1920" height="1080" style="fill:none;"/>
            <clipPath id="_clip1">
                <rect x="3940" y="0" width="1920" height="1080"/>
            </clipPath>
            <g clip-path="url(#_clip1)">
                <g>
                    <g transform="matrix(1.02019,0,0,1.20191,-12157.6,-109.031)">
                        <rect x="15891.4" y="131.356" width="1657.29" height="817.288" style="fill:url(#_Radial2);"/>
                    </g>
                    <g>
                        <g transform="matrix(3.38149,0,0,1.44098,-44977,-503.976)">
                            <g>
                                <g transform="matrix(1,0,0,1,12402.9,256.525)">
                                    <g>
                                        <path d="M2097.12,93.22L2063.22,127.119L2097.12,161.017L2131.02,127.119L2097.12,93.22Z" style="fill:rgb(221,191,255);"/>
                                    </g>
                                </g>
                                <g transform="matrix(3.86525,0,0,1,-41546.1,156.356)">
                                    <rect x="14500" y="225.788" width="33.898" height="3" style="fill:rgb(221,191,255);"/>
                                </g>
                            </g>
                        </g>
                        <g transform="matrix(3.38149,0,0,1.44098,-1346.02,847.978)">
                            <g>
                                <g>
                                    <path d="M2097.12,93.22L2063.22,127.119L2097.12,161.017L2131.02,127.119L2097.12,93.22Z" style="fill:rgb(221,191,255);"/>
                                </g>
                            </g>
                        </g>
                        <g transform="matrix(3.38149,0,0,1.44098,-56512.4,-46.5119)">
                            <g>
                                <path d="M18066.7,67.905L18066.7,77.846C18066.7,78.25 18066.8,78.556 18067,78.764C18067.1,78.973 18067.5,79.142 18067.9,79.272L18067.9,79.897L18062.4,79.897L18062.4,79.272C18062.8,79.142 18063.2,78.973 18063.3,78.764C18063.5,78.556 18063.6,78.25 18063.6,77.846L18063.6,55.268C18063.6,54.878 18063.5,54.578 18063.3,54.37C18063.2,54.161 18062.8,53.992 18062.4,53.862L18062.4,53.237L18076.4,53.237C18078.4,53.237 18079.9,53.341 18081,53.549C18082.1,53.758 18083,54.135 18083.9,54.682C18084.8,55.229 18085.5,55.978 18086.1,56.928C18086.7,57.996 18087,59.194 18087,60.522C18087,62.345 18086.4,63.907 18085.3,65.21C18084.5,66.212 18083.4,66.912 18082,67.309C18080.7,67.706 18078.8,67.905 18076.4,67.905L18066.7,67.905ZM18066.7,65.366L18076.7,65.366C18078.2,65.366 18079.3,65.307 18080,65.19C18080.7,65.073 18081.4,64.845 18081.9,64.506C18083.3,63.725 18083.9,62.417 18083.9,60.581C18083.9,58.732 18083.3,57.417 18081.9,56.635C18081.4,56.297 18080.7,56.069 18080,55.952C18079.3,55.835 18078.2,55.776 18076.7,55.776L18066.7,55.776L18066.7,65.366Z" style="fill:rgb(221,191,255);fill-rule:nonzero;"/>
                                <path d="M18106.5,52.768C18111.2,52.768 18115,53.999 18117.9,56.46C18119.5,57.827 18120.7,59.5 18121.5,61.479C18122.2,63.107 18122.5,64.858 18122.5,66.733C18122.5,69.272 18121.8,71.648 18120.3,73.862C18118.7,76.31 18116.5,78.074 18113.7,79.155C18111.6,79.962 18109.2,80.366 18106.5,80.366C18101.9,80.366 18098.1,79.135 18095.2,76.674C18093.6,75.294 18092.4,73.621 18091.6,71.655C18090.9,70.04 18090.6,68.341 18090.6,66.557C18090.6,63.914 18091.3,61.479 18092.7,59.253C18094.3,56.844 18096.5,55.086 18099.4,53.979C18101.4,53.211 18103.8,52.807 18106.5,52.768ZM18106.5,55.444C18102.5,55.444 18099.3,56.564 18097,58.803C18094.9,60.861 18093.8,63.445 18093.8,66.557C18093.8,69.682 18094.9,72.273 18097,74.331C18099.3,76.57 18102.5,77.69 18106.5,77.69C18110.6,77.69 18113.8,76.57 18116.1,74.331C18118.2,72.273 18119.3,69.734 18119.3,66.713C18119.3,63.445 18118.2,60.809 18116.1,58.803C18114.8,57.605 18113.5,56.766 18112,56.284C18110.4,55.737 18108.5,55.457 18106.5,55.444Z" style="fill:rgb(221,191,255);fill-rule:nonzero;"/>
                                <path d="M18138.8,55.776L18138.8,77.592C18138.8,78.126 18138.8,78.507 18139,78.735C18139.2,78.963 18139.5,79.142 18140,79.272L18140,79.897L18134.4,79.897L18134.4,79.272C18134.9,79.142 18135.3,78.966 18135.4,78.745C18135.6,78.523 18135.7,78.139 18135.7,77.592L18135.7,55.776L18126.7,55.776C18126.1,55.776 18125.7,55.859 18125.5,56.024C18125.3,56.189 18125.1,56.523 18125,57.026L18124.4,57.026L18124.4,51.987L18125,51.987C18125.1,52.487 18125.3,52.82 18125.5,52.987C18125.7,53.154 18126.1,53.237 18126.7,53.237L18147.8,53.237C18148.3,53.237 18148.7,53.154 18148.9,52.987C18149.2,52.82 18149.3,52.487 18149.5,51.987L18150.1,51.987L18150.1,57.026L18149.5,57.026C18149.3,56.523 18149.2,56.189 18148.9,56.024C18148.7,55.859 18148.3,55.776 18147.8,55.776L18138.8,55.776Z" style="fill:rgb(221,191,255);fill-rule:nonzero;"/>
                                <path d="M18154.7,77.592L18154.7,55.542C18154.7,54.995 18154.6,54.607 18154.4,54.379C18154.2,54.152 18153.9,53.979 18153.4,53.862L18153.4,53.237L18159,53.237L18159,53.862C18158.5,53.992 18158.2,54.168 18158,54.389C18157.8,54.611 18157.7,54.995 18157.7,55.542L18157.7,77.592C18157.7,78.139 18157.8,78.523 18158,78.745C18158.1,78.966 18158.5,79.142 18159,79.272L18159,79.897L18153.4,79.897L18153.4,79.272C18153.9,79.142 18154.3,78.966 18154.4,78.745C18154.6,78.523 18154.7,78.139 18154.7,77.592Z" style="fill:rgb(221,191,255);fill-rule:nonzero;"/>
                                <path d="M18180.1,52.768C18184.8,52.768 18188.6,53.999 18191.5,56.46C18193.1,57.827 18194.3,59.5 18195.1,61.479C18195.8,63.107 18196.1,64.858 18196.1,66.733C18196.1,69.272 18195.4,71.648 18193.9,73.862C18192.3,76.31 18190.1,78.074 18187.3,79.155C18185.2,79.962 18182.8,80.366 18180.1,80.366C18175.5,80.366 18171.7,79.135 18168.8,76.674C18167.2,75.294 18166,73.621 18165.2,71.655C18164.5,70.04 18164.2,68.341 18164.2,66.557C18164.2,63.914 18164.9,61.479 18166.4,59.253C18167.9,56.844 18170.1,55.086 18173,53.979C18175,53.211 18177.4,52.807 18180.1,52.768ZM18180.1,55.444C18176.1,55.444 18172.9,56.564 18170.6,58.803C18168.5,60.861 18167.4,63.445 18167.4,66.557C18167.4,69.682 18168.5,72.273 18170.6,74.331C18172.9,76.57 18176.1,77.69 18180.1,77.69C18184.2,77.69 18187.4,76.57 18189.7,74.331C18191.8,72.273 18192.9,69.734 18192.9,66.713C18192.9,63.445 18191.8,60.809 18189.7,58.803C18188.4,57.605 18187.1,56.766 18185.6,56.284C18184,55.737 18182.2,55.457 18180.1,55.444Z" style="fill:rgb(221,191,255);fill-rule:nonzero;"/>
                                <path d="M18205.3,56.616L18205.3,77.592C18205.3,78.126 18205.4,78.507 18205.6,78.735C18205.8,78.963 18206.1,79.142 18206.6,79.272L18206.6,79.897L18201.3,79.897L18201.3,79.272C18201.8,79.142 18202.1,78.966 18202.3,78.745C18202.5,78.523 18202.5,78.139 18202.5,77.592L18202.5,55.542C18202.5,54.995 18202.5,54.607 18202.3,54.379C18202.1,54.152 18201.8,53.979 18201.3,53.862L18201.3,53.237L18209,53.237L18209,53.862C18208.3,54.07 18208,54.363 18208,54.741C18208,55.001 18208.3,55.49 18209,56.206L18225,74.995L18225,55.542C18225,54.995 18224.9,54.607 18224.8,54.379C18224.6,54.152 18224.3,53.979 18223.8,53.862L18223.8,53.237L18229.1,53.237L18229.1,53.862C18228.6,53.979 18228.2,54.152 18228.1,54.379C18227.9,54.607 18227.8,54.995 18227.8,55.542L18227.8,77.592C18227.8,78.139 18227.9,78.523 18228.1,78.745C18228.2,78.966 18228.6,79.142 18229.1,79.272L18229.1,79.897L18222.9,79.897L18222.9,79.272C18223.5,79.116 18223.8,78.849 18223.8,78.471C18223.8,78.185 18223.5,77.716 18223,77.065L18205.3,56.616Z" style="fill:rgb(221,191,255);fill-rule:nonzero;"/>
                                <path d="M18259.9,54.893L18257.2,59.936L18256.6,59.643C18256.8,59.057 18256.9,58.693 18256.9,58.549C18256.9,58.159 18256.5,57.736 18255.5,57.28C18252.9,56.056 18250.1,55.444 18247.2,55.444C18244.8,55.444 18242.7,55.892 18240.9,56.789C18240,57.231 18239.3,57.802 18238.8,58.504C18238.3,59.206 18238.1,59.946 18238.1,60.726C18238.1,61.376 18238.3,61.989 18238.7,62.568C18239.1,63.146 18239.6,63.578 18240.2,63.864C18240.9,64.189 18241.8,64.413 18242.7,64.536C18243.7,64.66 18245.2,64.754 18247.4,64.819C18250.4,64.91 18252.5,65.05 18253.8,65.239C18255.1,65.428 18256.2,65.756 18257,66.225C18259.2,67.462 18260.3,69.344 18260.3,71.87C18260.3,74.279 18259.3,76.251 18257.3,77.788C18255.1,79.506 18252,80.366 18248.1,80.366C18245.9,80.366 18243.9,80.138 18242.2,79.682C18240.5,79.226 18238.5,78.387 18236.2,77.163C18235.5,76.863 18235.2,76.713 18235,76.713C18234.8,76.713 18234.5,76.948 18234.1,77.417L18233.6,77.085L18236.5,72.182L18237.1,72.495C18236.8,73.016 18236.7,73.367 18236.7,73.549C18236.7,73.966 18237.5,74.611 18239.2,75.483C18240.7,76.264 18242.1,76.827 18243.5,77.172C18244.9,77.518 18246.4,77.69 18248,77.69C18251.3,77.69 18253.8,76.967 18255.5,75.522C18256.7,74.559 18257.2,73.413 18257.2,72.085C18257.2,70.34 18256.3,69.135 18254.3,68.471C18253.7,68.25 18253.1,68.11 18252.4,68.051C18251.7,67.993 18249.8,67.905 18246.7,67.788C18244.4,67.697 18242.7,67.527 18241.4,67.28C18240.1,67.032 18239,66.629 18238,66.069C18237.1,65.548 18236.4,64.819 18235.8,63.881C18235.3,62.944 18235,61.922 18235,60.815C18235,58.927 18235.7,57.306 18237.1,55.952C18238.2,54.962 18239.6,54.184 18241.4,53.618C18243.3,53.051 18245.3,52.768 18247.5,52.768C18249.3,52.768 18250.9,52.945 18252.5,53.299C18254,53.653 18255.7,54.263 18257.6,55.129C18258.1,55.313 18258.3,55.405 18258.4,55.405C18258.7,55.405 18259,55.142 18259.4,54.618L18259.9,54.893Z" style="fill:rgb(221,191,255);fill-rule:nonzero;"/>
                            </g>
                        </g>
                    </g>
                </g>
            </g>
        </g>
    </g>
    <defs>
        <radialGradient id="_Radial2" cx="0" cy="0" r="1" gradientUnits="userSpaceOnUse" gradientTransform="matrix(1.38356e-13,-817.288,3080.62,6.82301e-14,17548.6,948.644)"><stop offset="0" style="stop-color:rgb(221,191,255);stop-opacity:0.5"/><stop offset="1" style="stop-color:rgb(221,191,255);stop-opacity:0"/></radialGradient>
    </defs>
</svg>
