<?xml version="1.0" encoding="UTF-8" standalone="no"?>
<!DOCTYPE svg PUBLIC "-//W3C//DTD SVG 1.1//EN" "http://www.w3.org/Graphics/SVG/1.1/DTD/svg11.dtd">
<svg width="100%" height="100%" viewBox="0 0 568 750" version="1.1" xmlns="http://www.w3.org/2000/svg" xmlns:xlink="http://www.w3.org/1999/xlink" xml:space="preserve" xmlns:serif="http://www.serif.com/" style="fill-rule:evenodd;clip-rule:evenodd;stroke-linejoin:round;stroke-miterlimit:2;">
    <g transform="matrix(1,0,0,1,4.54747e-13,-8047.04)">
        <g id="crystalsC" transform="matrix(0.295727,0,0,0.693974,-1165.17,8047.04)">
            <rect x="3940" y="0" width="1920" height="1080" style="fill:none;"/>
            <clipPath id="_clip1">
                <rect x="3940" y="0" width="1920" height="1080"/>
            </clipPath>
            <g clip-path="url(#_clip1)">
                <g transform="matrix(3.38149,0,0,1.44098,-9712.63,-335.821)">
                    <g transform="matrix(1,0,0,1,-10428.6,-116.695)">
                        <g>
                            <g transform="matrix(1,0,0,1,12402.9,256.525)">
                                <g>
                                    <path d="M2097.12,93.22L2063.22,127.119L2097.12,161.017L2131.02,127.119L2097.12,93.22Z" style="fill:white;"/>
                                </g>
                            </g>
                            <g transform="matrix(3.42765,0,0,1,-35200.9,156.356)">
                                <rect x="14500" y="225.788" width="33.898" height="3" style="fill:white;"/>
                            </g>
                        </g>
                    </g>
                    <g transform="matrix(1,0,0,1,2474.24,821.525)">
                        <g>
                            <g>
                                <path d="M2097.12,93.22L2063.22,127.119L2097.12,161.017L2131.02,127.119L2097.12,93.22Z" style="fill:white;"/>
                            </g>
                        </g>
                    </g>
                    <g transform="matrix(0.301698,0,0,0.834094,-723.029,157.386)">
                        <rect x="15891.4" y="131.356" width="1657.29" height="817.288" style="fill:url(#_Radial2);"/>
                    </g>
                    <g transform="matrix(1,0,0,1,-13839.7,200.382)">
                        <g>
                            <path d="M18076,55.542L18073.1,60.366L18072.6,60.053C18072.7,59.663 18072.7,59.357 18072.7,59.135C18072.7,58.601 18071.9,57.931 18070.2,57.124C18067.9,56.004 18065.4,55.444 18062.7,55.444C18059.1,55.444 18056.1,56.452 18053.9,58.469C18051.6,60.524 18050.4,63.184 18050.4,66.45C18050.4,69.702 18051.6,72.402 18054,74.548C18056.3,76.643 18059.2,77.69 18062.6,77.69C18065.9,77.69 18068.8,76.723 18071.4,74.79C18072.5,73.917 18073.1,73.299 18073.1,72.934C18073.1,72.752 18073,72.452 18072.7,72.036L18073.2,71.665L18076.7,75.883L18076.2,76.275C18075.8,75.949 18075.5,75.786 18075.3,75.786C18075.2,75.786 18074.9,75.923 18074.6,76.197C18073.4,77.097 18072.4,77.772 18071.6,78.223C18070.8,78.673 18069.9,79.054 18069,79.368C18067.1,80.033 18064.9,80.366 18062.6,80.366C18058.1,80.366 18054.4,79.116 18051.6,76.616C18048.7,73.999 18047.2,70.659 18047.2,66.596C18047.2,63.393 18048.1,60.62 18050,58.276C18052.9,54.604 18057.2,52.768 18063,52.768C18066.8,52.768 18070.5,53.777 18074,55.796C18074.3,55.926 18074.4,55.991 18074.5,55.991C18074.7,55.991 18075,55.743 18075.4,55.249L18076,55.542Z" style="fill:white;fill-rule:nonzero;"/>
                            <path d="M18086.1,67.905L18086.1,77.595C18086.1,78.128 18086.2,78.508 18086.3,78.736C18086.5,78.963 18086.8,79.142 18087.3,79.272L18087.3,79.897L18081.8,79.897L18081.8,79.272C18082.2,79.142 18082.6,78.966 18082.7,78.745C18082.9,78.523 18083,78.139 18083,77.592L18083,55.542C18083,54.995 18082.9,54.607 18082.7,54.379C18082.6,54.152 18082.2,53.979 18081.8,53.862L18081.8,53.237L18096.4,53.237C18098.4,53.237 18100,53.344 18101.1,53.56C18102.3,53.775 18103.3,54.15 18104.2,54.684C18105.1,55.232 18105.8,55.981 18106.3,56.933C18106.9,58.015 18107.3,59.234 18107.3,60.59C18107.3,62.625 18106.6,64.284 18105.2,65.568C18103.9,66.852 18102,67.586 18099.7,67.768L18106.5,78.297C18106.9,78.947 18107.4,79.272 18108.2,79.272L18108.2,79.897L18102,79.897L18102,79.272C18102.7,79.168 18103,78.986 18103,78.726C18103,78.596 18102.8,78.174 18102.3,77.459L18096.3,67.905L18086.1,67.905ZM18086.1,65.366L18096.9,65.366C18098.3,65.366 18099.4,65.304 18100.2,65.18C18100.9,65.057 18101.6,64.832 18102.2,64.506C18103.5,63.725 18104.2,62.417 18104.2,60.581C18104.2,58.732 18103.5,57.417 18102.1,56.635C18101.5,56.297 18100.8,56.069 18100.1,55.952C18099.3,55.835 18098.2,55.776 18096.6,55.776L18086.1,55.776L18086.1,65.366Z" style="fill:white;fill-rule:nonzero;"/>
                            <path d="M18123.9,68.09L18123.9,77.591C18123.9,78.125 18123.9,78.506 18124.1,78.734C18124.3,78.962 18124.6,79.142 18125.1,79.272L18125.1,79.897L18119.5,79.897L18119.5,79.272C18120,79.142 18120.4,78.966 18120.5,78.744C18120.7,78.523 18120.8,78.138 18120.8,77.591L18120.8,68.09L18112.2,56.809C18111.2,55.586 18110.6,54.812 18110.2,54.486C18109.9,54.161 18109.4,53.953 18108.9,53.862L18108.9,53.237L18115.7,53.237L18115.7,53.862C18115.1,54.018 18114.7,54.272 18114.7,54.623C18114.7,55.053 18115.1,55.684 18115.7,56.516L18122.4,65.733L18129.2,56.204C18129.8,55.397 18130,54.851 18130,54.564C18130,54.239 18129.8,54.005 18129.2,53.862L18129.2,53.237L18135.5,53.237L18135.5,53.862C18134.8,53.979 18134.3,54.265 18133.8,54.721C18132.9,55.709 18132.3,56.406 18132,56.809L18123.9,68.09Z" style="fill:white;fill-rule:nonzero;"/>
                            <path d="M18162.4,54.893L18159.6,59.936L18159,59.643C18159.2,59.057 18159.3,58.693 18159.3,58.549C18159.3,58.159 18158.9,57.736 18157.9,57.28C18155.3,56.056 18152.5,55.444 18149.6,55.444C18147.2,55.444 18145.1,55.892 18143.3,56.789C18142.4,57.231 18141.8,57.802 18141.3,58.504C18140.8,59.206 18140.5,59.946 18140.5,60.726C18140.5,61.376 18140.7,61.989 18141.1,62.568C18141.5,63.146 18142,63.578 18142.6,63.864C18143.3,64.189 18144.2,64.413 18145.1,64.536C18146.1,64.66 18147.6,64.754 18149.8,64.819C18152.8,64.91 18154.9,65.05 18156.2,65.239C18157.5,65.428 18158.6,65.756 18159.4,66.225C18161.6,67.462 18162.7,69.344 18162.7,71.87C18162.7,74.279 18161.7,76.251 18159.7,77.788C18157.5,79.506 18154.4,80.366 18150.5,80.366C18148.3,80.366 18146.3,80.138 18144.6,79.682C18142.9,79.226 18140.9,78.387 18138.6,77.163C18138,76.863 18137.6,76.713 18137.5,76.713C18137.3,76.713 18137,76.948 18136.5,77.417L18136,77.085L18138.9,72.182L18139.5,72.495C18139.2,73.016 18139.1,73.367 18139.1,73.549C18139.1,73.966 18139.9,74.611 18141.6,75.483C18143.1,76.264 18144.6,76.827 18145.9,77.172C18147.3,77.518 18148.8,77.69 18150.5,77.69C18153.8,77.69 18156.3,76.967 18158,75.522C18159.1,74.559 18159.7,73.413 18159.7,72.085C18159.7,70.34 18158.7,69.135 18156.8,68.471C18156.1,68.25 18155.5,68.11 18154.8,68.051C18154.1,67.993 18152.2,67.905 18149.1,67.788C18146.9,67.697 18145.1,67.527 18143.8,67.28C18142.6,67.032 18141.4,66.629 18140.4,66.069C18139.5,65.548 18138.8,64.819 18138.2,63.881C18137.7,62.944 18137.4,61.922 18137.4,60.815C18137.4,58.927 18138.1,57.306 18139.5,55.952C18140.6,54.962 18142,54.184 18143.9,53.618C18145.7,53.051 18147.7,52.768 18149.9,52.768C18151.7,52.768 18153.3,52.945 18154.9,53.299C18156.4,53.653 18158.1,54.263 18160.1,55.129C18160.5,55.313 18160.7,55.405 18160.9,55.405C18161.1,55.405 18161.4,55.142 18161.8,54.618L18162.4,54.893Z" style="fill:white;fill-rule:nonzero;"/>
                            <path d="M18180.1,55.776L18180.1,77.592C18180.1,78.126 18180.2,78.507 18180.4,78.735C18180.6,78.963 18180.9,79.142 18181.4,79.272L18181.4,79.897L18175.8,79.897L18175.8,79.272C18176.3,79.142 18176.7,78.966 18176.8,78.745C18177,78.523 18177.1,78.139 18177.1,77.592L18177.1,55.776L18168.1,55.776C18167.5,55.776 18167.1,55.859 18166.9,56.024C18166.7,56.189 18166.5,56.523 18166.4,57.026L18165.8,57.026L18165.8,51.987L18166.4,51.987C18166.5,52.487 18166.7,52.82 18166.9,52.987C18167.1,53.154 18167.5,53.237 18168.1,53.237L18189.2,53.237C18189.7,53.237 18190.1,53.154 18190.3,52.987C18190.6,52.82 18190.7,52.487 18190.9,51.987L18191.5,51.987L18191.5,57.026L18190.9,57.026C18190.7,56.523 18190.6,56.189 18190.3,56.024C18190.1,55.859 18189.7,55.776 18189.2,55.776L18180.1,55.776Z" style="fill:white;fill-rule:nonzero;"/>
                            <path d="M18210.6,72.417L18196.4,72.417L18194,77.475C18193.8,77.957 18193.7,78.296 18193.7,78.491C18193.7,78.881 18194.1,79.142 18194.9,79.272L18194.9,79.897L18188.9,79.897L18188.9,79.272C18189.5,79.181 18189.9,78.986 18190.1,78.686C18190.4,78.387 18190.8,77.736 18191.2,76.733L18201,55.659C18201.2,55.151 18201.4,54.806 18201.4,54.624C18201.4,54.285 18201,54.031 18200.4,53.862L18200.4,53.237L18206.9,53.237L18206.9,53.862C18206.2,54.07 18205.9,54.344 18205.9,54.682C18205.9,54.825 18206,55.151 18206.3,55.659L18215.6,75.971C18216.3,77.469 18216.8,78.348 18217,78.608C18217.2,78.868 18217.7,79.09 18218.5,79.272L18218.5,79.897L18212.1,79.897L18212.1,79.272C18212.9,79.168 18213.3,78.881 18213.3,78.413C18213.3,78.204 18213.1,77.801 18212.8,77.202L18210.6,72.417ZM18209.5,69.878L18203.5,56.704L18197.5,69.878L18209.5,69.878Z" style="fill:white;fill-rule:nonzero;"/>
                            <path d="M18225.5,77.358L18242.6,77.358C18243.1,77.358 18243.5,77.273 18243.7,77.104C18244,76.935 18244.1,76.603 18244.2,76.108L18244.9,76.108L18244.9,81.147L18244.2,81.147C18244.1,80.652 18244,80.32 18243.7,80.151C18243.5,79.982 18243.1,79.897 18242.6,79.897L18221.2,79.897L18221.2,79.272C18221.7,79.142 18222.1,78.966 18222.2,78.745C18222.4,78.523 18222.5,78.139 18222.5,77.592L18222.5,55.542C18222.5,54.995 18222.4,54.611 18222.2,54.389C18222,54.168 18221.7,53.992 18221.2,53.862L18221.2,53.237L18226.8,53.237L18226.8,53.862C18226.3,53.992 18226,54.168 18225.8,54.389C18225.6,54.611 18225.5,54.995 18225.5,55.542L18225.5,77.358Z" style="fill:white;fill-rule:nonzero;"/>
                            <path d="M18274.4,54.893L18271.7,59.936L18271.1,59.643C18271.3,59.057 18271.4,58.693 18271.4,58.549C18271.4,58.159 18271,57.736 18270,57.28C18267.4,56.056 18264.6,55.444 18261.7,55.444C18259.3,55.444 18257.2,55.892 18255.4,56.789C18254.5,57.231 18253.8,57.802 18253.3,58.504C18252.8,59.206 18252.6,59.946 18252.6,60.726C18252.6,61.376 18252.8,61.989 18253.2,62.568C18253.6,63.146 18254.1,63.578 18254.7,63.864C18255.4,64.189 18256.3,64.413 18257.2,64.536C18258.2,64.66 18259.7,64.754 18261.9,64.819C18264.9,64.91 18267,65.05 18268.3,65.239C18269.6,65.428 18270.7,65.756 18271.5,66.225C18273.7,67.462 18274.8,69.344 18274.8,71.87C18274.8,74.279 18273.8,76.251 18271.8,77.788C18269.6,79.506 18266.5,80.366 18262.6,80.366C18260.4,80.366 18258.4,80.138 18256.7,79.682C18255,79.226 18253,78.387 18250.7,77.163C18250,76.863 18249.7,76.713 18249.5,76.713C18249.3,76.713 18249,76.948 18248.6,77.417L18248.1,77.085L18251,72.182L18251.6,72.495C18251.3,73.016 18251.2,73.367 18251.2,73.549C18251.2,73.966 18252,74.611 18253.7,75.483C18255.2,76.264 18256.6,76.827 18258,77.172C18259.4,77.518 18260.9,77.69 18262.6,77.69C18265.8,77.69 18268.3,76.967 18270.1,75.522C18271.2,74.559 18271.8,73.413 18271.8,72.085C18271.8,70.34 18270.8,69.135 18268.8,68.471C18268.2,68.25 18267.6,68.11 18266.9,68.051C18266.2,67.993 18264.3,67.905 18261.2,67.788C18258.9,67.697 18257.2,67.527 18255.9,67.28C18254.7,67.032 18253.5,66.629 18252.5,66.069C18251.6,65.548 18250.9,64.819 18250.3,63.881C18249.8,62.944 18249.5,61.922 18249.5,60.815C18249.5,58.927 18250.2,57.306 18251.6,55.952C18252.7,54.962 18254.1,54.184 18256,53.618C18257.8,53.051 18259.8,52.768 18262,52.768C18263.8,52.768 18265.4,52.945 18267,53.299C18268.5,53.653 18270.2,54.263 18272.1,55.129C18272.6,55.313 18272.8,55.405 18272.9,55.405C18273.2,55.405 18273.5,55.142 18273.9,54.618L18274.4,54.893Z" style="fill:white;fill-rule:nonzero;"/>
                        </g>
                    </g>
                </g>
            </g>
        </g>
    </g>
    <defs>
        <radialGradient id="_Radial2" cx="0" cy="0" r="1" gradientUnits="userSpaceOnUse" gradientTransform="matrix(1.38356e-13,-817.288,3080.62,6.82301e-14,17548.6,948.644)"><stop offset="0" style="stop-color:white;stop-opacity:0.5"/><stop offset="1" style="stop-color:white;stop-opacity:0"/></radialGradient>
    </defs>
</svg>
