<?xml version="1.0" encoding="UTF-8" standalone="no"?>
<!DOCTYPE svg PUBLIC "-//W3C//DTD SVG 1.1//EN" "http://www.w3.org/Graphics/SVG/1.1/DTD/svg11.dtd">
<svg width="100%" height="100%" viewBox="0 0 568 68" version="1.1" xmlns="http://www.w3.org/2000/svg" xmlns:xlink="http://www.w3.org/1999/xlink" xml:space="preserve" xmlns:serif="http://www.serif.com/" style="fill-rule:evenodd;clip-rule:evenodd;stroke-linejoin:round;stroke-miterlimit:2;">
    <g transform="matrix(1,0,0,1,-3351.99,-6967.18)">
        <g id="galleryC" transform="matrix(1,0,0,1,2419.53,4671.58)">
            <rect x="932.458" y="2295.6" width="567.797" height="67.797" style="fill:none;"/>
            <clipPath id="_clip1">
                <rect x="932.458" y="2295.6" width="567.797" height="67.797"/>
            </clipPath>
            <g clip-path="url(#_clip1)">
                <g transform="matrix(1,0,0,1,-1019.37,-4162.27)">
                    <g transform="matrix(1,0,0,1,-111.39,6364.65)">
                        <g>
                            <g>
                                <path d="M2097.12,93.22L2063.22,127.119L2097.12,161.017L2131.02,127.119L2097.12,93.22Z" style="fill:white;"/>
                            </g>
                        </g>
                    </g>
                    <g transform="matrix(1,0,0,1,388.61,6364.65)">
                        <g>
                            <g>
                                <path d="M2097.12,93.22L2063.22,127.119L2097.12,161.017L2131.02,127.119L2097.12,93.22Z" style="fill:white;"/>
                            </g>
                        </g>
                    </g>
                    <g transform="matrix(1,0,0,1,-19774.2,6390.34)">
                        <g>
                            <path d="M21938.7,90.658L21935.7,95.424L21935.2,95.073C21935.5,94.684 21935.6,94.392 21935.6,94.198C21935.6,93.796 21934.9,93.225 21933.5,92.486C21930.8,91.033 21928.1,90.306 21925.2,90.306C21922,90.306 21919.2,91.224 21917,93.058C21914.4,95.139 21913.1,97.949 21913.1,101.488C21913.1,104.936 21914.4,107.681 21916.8,109.723C21919.1,111.609 21921.9,112.553 21925.5,112.553C21927.3,112.553 21929.1,112.263 21930.7,111.683C21932.4,111.104 21933.8,110.293 21935,109.252L21935,104.33L21928.7,104.33C21928.1,104.33 21927.7,104.415 21927.5,104.584C21927.3,104.753 21927.1,105.085 21927,105.58L21926.3,105.58L21926.3,100.541L21927,100.541C21927.1,101.036 21927.3,101.368 21927.5,101.537C21927.7,101.706 21928.1,101.791 21928.7,101.791L21939.1,101.791L21939.1,102.416C21938.6,102.546 21938.3,102.722 21938.1,102.943C21938,103.165 21937.9,103.549 21937.9,104.096L21937.9,107.553C21937.9,108.099 21938,108.484 21938.1,108.705C21938.3,108.926 21938.6,109.102 21939.1,109.232L21939.1,109.779C21937.7,111.094 21936.3,112.116 21935,112.846C21932.2,114.434 21928.9,115.228 21925.3,115.228C21920.9,115.228 21917.3,114.024 21914.5,111.615C21913.2,110.43 21912.1,109.011 21911.3,107.357C21910.4,105.469 21909.9,103.477 21909.9,101.381C21909.9,98.373 21910.8,95.704 21912.6,93.373C21914.2,91.224 21916.4,89.655 21919.1,88.666C21921.1,87.976 21923.2,87.631 21925.4,87.631C21927.3,87.631 21929.2,87.865 21930.8,88.334C21932.5,88.803 21934.3,89.577 21936.2,90.658C21936.8,90.971 21937.1,91.127 21937.2,91.127C21937.5,91.127 21937.8,90.853 21938.2,90.306L21938.7,90.658Z" style="fill:white;fill-rule:nonzero;"/>
                            <path d="M21962.6,107.279L21948.4,107.279L21946,112.338C21945.8,112.819 21945.7,113.158 21945.7,113.353C21945.7,113.744 21946.1,114.004 21946.8,114.135L21946.8,114.76L21940.9,114.76L21940.9,114.135C21941.4,114.043 21941.8,113.848 21942.1,113.549C21942.4,113.249 21942.8,112.598 21943.2,111.596L21953,90.521C21953.2,90.013 21953.3,89.668 21953.3,89.486C21953.3,89.148 21953,88.894 21952.4,88.724L21952.4,88.099L21958.9,88.099L21958.9,88.724C21958.2,88.933 21957.9,89.206 21957.9,89.545C21957.9,89.688 21958,90.013 21958.3,90.521L21967.6,110.834C21968.3,112.331 21968.8,113.21 21969,113.471C21969.2,113.731 21969.7,113.952 21970.4,114.135L21970.4,114.76L21964.1,114.76L21964.1,114.135C21964.9,114.03 21965.2,113.744 21965.2,113.275C21965.2,113.067 21965.1,112.663 21964.8,112.064L21962.6,107.279ZM21961.5,104.74L21955.5,91.567L21949.5,104.74L21961.5,104.74Z" style="fill:white;fill-rule:nonzero;"/>
                            <path d="M21977.5,112.221L21994.6,112.221C21995.1,112.221 21995.5,112.136 21995.7,111.967C21995.9,111.797 21996.1,111.465 21996.2,110.971L21996.9,110.971L21996.9,116.01L21996.2,116.01C21996.1,115.515 21995.9,115.183 21995.7,115.013C21995.5,114.844 21995.1,114.76 21994.6,114.76L21973.2,114.76L21973.2,114.135C21973.7,114.004 21974,113.829 21974.2,113.607C21974.4,113.386 21974.5,113.002 21974.5,112.455L21974.5,90.404C21974.5,89.857 21974.4,89.473 21974.2,89.252C21974,89.03 21973.7,88.855 21973.2,88.724L21973.2,88.099L21978.8,88.099L21978.8,88.724C21978.3,88.855 21977.9,89.03 21977.8,89.252C21977.6,89.473 21977.5,89.857 21977.5,90.404L21977.5,112.221Z" style="fill:white;fill-rule:nonzero;"/>
                            <path d="M22004.7,112.221L22021.7,112.221C22022.2,112.221 22022.6,112.136 22022.8,111.967C22023.1,111.797 22023.2,111.465 22023.4,110.971L22024,110.971L22024,116.01L22023.4,116.01C22023.2,115.515 22023.1,115.183 22022.8,115.013C22022.6,114.844 22022.2,114.76 22021.7,114.76L22000.3,114.76L22000.3,114.135C22000.8,114.004 22001.2,113.829 22001.3,113.607C22001.5,113.386 22001.6,113.002 22001.6,112.455L22001.6,90.404C22001.6,89.857 22001.5,89.473 22001.3,89.252C22001.2,89.03 22000.8,88.855 22000.3,88.724L22000.3,88.099L22005.9,88.099L22005.9,88.724C22005.4,88.855 22005.1,89.03 22004.9,89.252C22004.7,89.473 22004.7,89.857 22004.7,90.404L22004.7,112.221Z" style="fill:white;fill-rule:nonzero;"/>
                            <path d="M22031.8,102.318L22031.8,112.221L22048.9,112.221C22049.4,112.221 22049.8,112.136 22050,111.967C22050.3,111.797 22050.4,111.465 22050.5,110.971L22051.2,110.971L22051.2,116.01L22050.5,116.01C22050.4,115.515 22050.2,115.183 22050,115.013C22049.8,114.844 22049.4,114.76 22048.9,114.76L22027.5,114.76L22027.5,114.135C22028,114.004 22028.3,113.829 22028.5,113.607C22028.6,113.386 22028.7,113.002 22028.7,112.455L22028.7,90.404C22028.7,89.857 22028.6,89.473 22028.5,89.252C22028.3,89.03 22028,88.855 22027.5,88.724L22027.5,88.099L22048.6,88.099C22049.2,88.099 22049.5,88.016 22049.8,87.849C22050,87.683 22050.2,87.349 22050.3,86.849L22050.9,86.849L22050.9,91.888L22050.3,91.888C22050.2,91.399 22050,91.068 22049.8,90.896C22049.5,90.724 22049.2,90.638 22048.6,90.638L22031.8,90.638L22031.8,99.779L22042.8,99.779C22043.4,99.779 22043.7,99.694 22044,99.525C22044.2,99.356 22044.4,99.024 22044.5,98.529L22045.1,98.529L22045.1,103.568L22044.5,103.568C22044.4,103.073 22044.2,102.741 22044,102.572C22043.7,102.403 22043.4,102.318 22042.8,102.318L22031.8,102.318Z" style="fill:white;fill-rule:nonzero;"/>
                            <path d="M22060.6,102.767L22060.6,112.458C22060.6,112.991 22060.7,113.371 22060.8,113.598C22061,113.826 22061.3,114.005 22061.8,114.135L22061.8,114.76L22056.3,114.76L22056.3,114.135C22056.7,114.004 22057.1,113.829 22057.2,113.607C22057.4,113.386 22057.5,113.002 22057.5,112.455L22057.5,90.404C22057.5,89.857 22057.4,89.47 22057.2,89.242C22057.1,89.014 22056.7,88.842 22056.3,88.724L22056.3,88.099L22070.9,88.099C22072.9,88.099 22074.5,88.207 22075.6,88.422C22076.8,88.637 22077.8,89.012 22078.7,89.547C22079.6,90.094 22080.3,90.844 22080.8,91.796C22081.4,92.878 22081.8,94.097 22081.8,95.453C22081.8,97.487 22081.1,99.146 22079.7,100.43C22078.4,101.715 22076.5,102.448 22074.2,102.631L22081,113.16C22081.4,113.81 22081.9,114.135 22082.7,114.135L22082.7,114.76L22076.5,114.76L22076.5,114.135C22077.2,114.031 22077.5,113.849 22077.5,113.589C22077.5,113.459 22077.3,113.036 22076.8,112.321L22070.8,102.767L22060.6,102.767ZM22060.6,100.228L22071.4,100.228C22072.8,100.228 22074,100.166 22074.7,100.043C22075.4,99.919 22076.1,99.694 22076.7,99.369C22078,98.588 22078.7,97.279 22078.7,95.443C22078.7,93.594 22078,92.279 22076.6,91.498C22076,91.159 22075.3,90.931 22074.6,90.814C22073.8,90.697 22072.7,90.638 22071.1,90.638L22060.6,90.638L22060.6,100.228Z" style="fill:white;fill-rule:nonzero;"/>
                            <path d="M22098.4,102.953L22098.4,112.453C22098.4,112.988 22098.4,113.369 22098.6,113.597C22098.8,113.825 22099.1,114.004 22099.6,114.135L22099.6,114.76L22094,114.76L22094,114.135C22094.5,114.004 22094.9,113.828 22095,113.607C22095.2,113.385 22095.3,113.001 22095.3,112.453L22095.3,102.953L22086.7,91.671C22085.7,90.448 22085.1,89.674 22084.7,89.349C22084.4,89.024 22083.9,88.816 22083.4,88.724L22083.4,88.099L22090.2,88.099L22090.2,88.724C22089.6,88.88 22089.2,89.134 22089.2,89.486C22089.2,89.915 22089.6,90.546 22090.2,91.379L22096.9,100.596L22103.7,91.067C22104.3,90.26 22104.5,89.713 22104.5,89.427C22104.5,89.102 22104.3,88.868 22103.7,88.724L22103.7,88.099L22110,88.099L22110,88.724C22109.3,88.842 22108.8,89.128 22108.3,89.583C22107.4,90.572 22106.8,91.268 22106.5,91.671L22098.4,102.953Z" style="fill:white;fill-rule:nonzero;"/>
                        </g>
                    </g>
                </g>
            </g>
        </g>
    </g>
</svg>
