<?xml version="1.0" encoding="UTF-8" standalone="no"?>
<!DOCTYPE svg PUBLIC "-//W3C//DTD SVG 1.1//EN" "http://www.w3.org/Graphics/SVG/1.1/DTD/svg11.dtd">
<svg width="100%" height="100%" viewBox="0 0 511 200" version="1.1" xmlns="http://www.w3.org/2000/svg" xmlns:xlink="http://www.w3.org/1999/xlink" xml:space="preserve" xmlns:serif="http://www.serif.com/" style="fill-rule:evenodd;clip-rule:evenodd;stroke-linejoin:round;stroke-miterlimit:2;">
    <g transform="matrix(1,0,0,1,-99.4994,-6731.59)">
        <g id="slotsC" transform="matrix(0.265934,0,0,0.184401,-948.28,6731.59)">
            <rect x="3940" y="0" width="1920" height="1080" style="fill:none;"/>
            <clipPath id="_clip1">
                <rect x="3940" y="0" width="1920" height="1080"/>
            </clipPath>
            <g clip-path="url(#_clip1)">
                <g transform="matrix(3.76033,0,0,5.42298,-11122.7,-356.17)">
                    <g transform="matrix(1,0,0,1,1974.24,103.814)">
                        <path d="M2097.12,93.22L2063.22,127.119L2097.12,161.017L2131.02,127.119L2097.12,93.22ZM2097.12,97.463L2126.77,127.119C2126.77,127.119 2097.12,156.774 2097.12,156.774C2097.12,156.774 2067.46,127.119 2067.46,127.119L2097.12,97.463Z" style="fill:white;"/>
                    </g>
                    <g transform="matrix(0.847458,0,0,0.847458,3901.86,-38.1356)">
                        <path d="M200,122.5L122.5,200L200,277.5L277.5,200L200,122.5ZM200,145L145,200L200,255L255,200L200,145Z" style="fill:white;"/>
                    </g>
                    <g transform="matrix(0.847458,0,0,0.847458,3920.93,-40.2542)">
                        <path d="M245,170L632.5,170L610,192.5L267.5,192.5L245,170ZM253.546,173.54L623.954,173.54C623.954,173.54 608.534,188.96 608.534,188.96C608.534,188.96 293.156,188.96 268.966,188.96L253.546,173.54Z" style="fill:white;"/>
                    </g>
                    <g transform="matrix(0.847458,0,0,-0.847458,3920.93,302.966)">
                        <path d="M245,170L632.5,170L610,192.5L267.5,192.5L245,170ZM253.546,173.54L268.966,188.96C268.966,188.96 608.534,188.96 608.534,188.96C608.534,188.96 623.954,173.54 623.954,173.54L253.546,173.54Z" style="fill:white;"/>
                    </g>
                    <g transform="matrix(1,0,0,1,2385.25,4.23729)">
                        <path d="M2097.12,93.22L2063.22,127.119L2097.12,161.017L2131.02,127.119L2097.12,93.22ZM2097.12,97.463L2126.77,127.119C2126.77,127.119 2097.12,156.774 2097.12,156.774C2097.12,156.774 2067.46,127.119 2067.46,127.119L2097.12,97.463Z" style="fill:white;"/>
                    </g>
                </g>
            </g>
        </g>
    </g>
</svg>
